<?xml version="1.0" standalone="no"?>
<!DOCTYPE svg PUBLIC "-//W3C//DTD SVG 20010904//EN"
 "http://www.w3.org/TR/2001/REC-SVG-20010904/DTD/svg10.dtd">
<svg version="1.0" xmlns="http://www.w3.org/2000/svg"
 width="700.000000pt" height="700.000000pt" viewBox="0 0 700.000000 700.000000"
 preserveAspectRatio="xMidYMid meet">
<metadata>
Created by potrace 1.14, written by Peter Selinger 2001-2017
</metadata>
<g transform="translate(0.000000,700.000000) scale(0.100000,-0.100000)"
fill="#000000" stroke="none">
<path d="M0 6775 c0 -124 2 -225 4 -225 3 0 53 18 113 40 97 35 259 86 306 95
10 2 27 7 37 10 20 6 29 8 150 31 47 9 93 18 104 20 10 2 44 6 75 10 31 3 65
8 76 10 113 21 633 21 715 -1 8 -2 40 -7 70 -10 101 -11 307 -55 442 -94 470
-138 859 -363 1183 -686 158 -156 181 -183 307 -351 5 -7 -8 -34 -35 -70 -161
-219 -333 -554 -445 -864 -30 -82 -95 -299 -106 -350 -3 -14 -7 -34 -10 -45
-9 -38 -35 -170 -41 -202 -3 -18 -7 -45 -10 -60 -2 -16 -7 -48 -10 -73 -3 -25
-7 -61 -10 -80 -5 -39 -18 -229 -18 -273 -1 -25 -18 -42 -121 -121 -67 -51
-155 -119 -196 -150 -41 -32 -124 -96 -185 -142 -784 -598 -1143 -875 -1154
-888 -32 -38 241 -41 468 -5 122 19 305 67 376 99 11 5 43 18 72 29 196 75
502 257 706 419 39 30 73 50 77 46 5 -5 11 -24 15 -42 79 -455 274 -924 553
-1332 47 -69 88 -127 91 -130 3 -3 25 -30 48 -60 23 -30 58 -73 78 -95 79 -88
81 -76 -21 -174 -129 -125 -315 -265 -454 -342 -165 -91 -452 -218 -630 -279
-36 -12 -72 -25 -81 -30 -46 -24 -392 -116 -524 -139 -33 -6 -70 -13 -82 -15
-12 -3 -53 -8 -90 -11 -37 -4 -70 -9 -73 -10 -3 -2 -54 -7 -115 -11 -188 -13
-513 -8 -645 11 -55 8 -107 15 -150 20 -235 31 -711 171 -852 252 -5 2 -8
-111 -8 -251 l0 -256 3500 0 3500 0 0 131 0 131 -43 -6 c-24 -4 -55 -9 -68
-11 -245 -41 -667 -38 -929 5 -30 6 -73 12 -95 15 -61 9 -218 46 -360 85 -161
45 -371 128 -555 221 -897 453 -1529 1267 -1739 2239 -11 52 -23 113 -26 135
-3 22 -7 54 -10 70 -12 75 -22 160 -30 260 -7 69 -7 343 -1 420 6 76 18 200
22 219 2 11 6 41 9 68 3 27 10 72 16 101 6 28 13 63 15 77 16 82 71 279 106
384 224 664 645 1242 1194 1638 414 299 936 506 1429 568 50 6 101 13 115 16
146 24 579 23 760 -1 19 -2 58 -7 85 -10 28 -3 62 -8 78 -11 l27 -6 0 131 0
131 -3500 0 -3500 0 0 -225z"/>
<path d="M1069 4806 c-2 -3 -33 -7 -69 -11 -310 -31 -604 -217 -733 -463 -88
-167 -123 -424 -92 -667 4 -33 8 -66 8 -73 0 -7 3 -11 6 -10 3 2 159 118 346
259 187 141 365 275 395 297 30 23 60 45 65 49 6 5 109 83 230 173 121 91 222
167 225 170 3 3 47 36 98 74 50 39 92 73 92 77 0 14 -202 83 -280 95 -19 3
-54 9 -76 13 -23 5 -77 9 -120 10 -43 1 -81 4 -84 6 -4 3 -9 3 -11 1z"/>
<path d="M6377 4544 c-1 -1 -33 -5 -71 -9 -217 -21 -462 -144 -618 -311 -141
-149 -240 -353 -264 -539 -2 -22 -7 -46 -10 -54 -6 -18 -6 -215 1 -261 21
-150 43 -226 101 -346 101 -213 280 -389 494 -487 86 -40 193 -73 265 -83 28
-3 59 -8 70 -10 28 -6 194 -5 230 1 61 11 131 24 150 29 44 11 159 57 215 87
l60 32 -2 901 -3 901 -95 47 c-125 62 -278 99 -418 102 -56 1 -103 1 -105 0z"/>
</g>
</svg>
