<svg width="258" height="81" viewBox="0 0 258 81" fill="none" xmlns="http://www.w3.org/2000/svg">
<rect width="257" height="80" transform="translate(0.319702 0.85022)" fill="#991B1B"/>
<path d="M31.9958 55.8502H24.439L39.0839 26.7593H48.4447L53.4305 55.8502H45.8737L42.6777 34.0889H42.4504L31.9958 55.8502ZM32.9049 44.4014H48.7004L47.7913 49.7423H31.9958L32.9049 44.4014ZM54.3626 55.8502L59.1921 26.7593H71.3228C73.5009 26.7593 75.2764 27.0671 76.6495 27.6826C78.0226 28.2981 78.9885 29.1599 79.5473 30.2678C80.1154 31.3758 80.2764 32.6589 80.0302 34.1173C79.8314 35.2157 79.4242 36.2006 78.8086 37.0718C78.2026 37.9336 77.445 38.6532 76.5359 39.2309C75.6268 39.7991 74.623 40.1968 73.5245 40.4241L73.4677 40.7082C74.642 40.7555 75.6789 41.068 76.5785 41.6457C77.4876 42.2233 78.1599 43.033 78.5956 44.0747C79.0312 45.1068 79.1306 46.319 78.8938 47.711C78.6382 49.2735 78.0084 50.6703 77.0046 51.9014C76.0103 53.1229 74.6988 54.0889 73.07 54.7991C71.4412 55.4998 69.5567 55.8502 67.4166 55.8502H54.3626ZM62.3598 50.1826H66.7063C68.212 50.1826 69.3768 49.8938 70.2007 49.3161C71.034 48.729 71.5264 47.9241 71.6779 46.9014C71.801 46.1533 71.7348 45.5093 71.4791 44.9695C71.2234 44.4203 70.7973 43.9989 70.2007 43.7053C69.6041 43.4023 68.8512 43.2508 67.9421 43.2508H63.4677L62.3598 50.1826ZM64.249 38.7195H68.1552C68.9128 38.7195 69.6088 38.5917 70.2433 38.336C70.8872 38.0803 71.4175 37.711 71.8342 37.2281C72.2603 36.7451 72.5255 36.1627 72.6296 35.4809C72.7906 34.5055 72.5681 33.7385 71.962 33.1798C71.356 32.6211 70.4706 32.3417 69.3058 32.3417H65.3001L64.249 38.7195ZM108.185 37.2991H101.168C101.206 36.5604 101.135 35.9023 100.955 35.3246C100.775 34.7375 100.491 34.2356 100.103 33.819C99.7147 33.3928 99.2317 33.0709 98.6541 32.8531C98.0764 32.6353 97.4041 32.5264 96.637 32.5264C95.1692 32.5264 93.8387 32.8909 92.6456 33.6201C91.4524 34.3493 90.4533 35.4004 89.6484 36.7735C88.8435 38.1466 88.28 39.7943 87.9581 41.7167C87.6645 43.5728 87.6692 45.1211 87.9723 46.3616C88.2848 47.6021 88.8624 48.5349 89.7052 49.1599C90.548 49.7754 91.6181 50.0832 92.9154 50.0832C93.7582 50.0832 94.5395 49.9837 95.2592 49.7849C95.9884 49.5765 96.6465 49.2782 97.2336 48.89C97.8207 48.5017 98.3274 48.033 98.7535 47.4837C99.1891 46.925 99.5253 46.3048 99.762 45.6229H106.836C106.486 46.9014 105.908 48.175 105.103 49.444C104.307 50.7034 103.304 51.8445 102.092 52.8673C100.879 53.89 99.4732 54.7091 97.8728 55.3247C96.2724 55.9402 94.4921 56.2479 92.5319 56.2479C89.852 56.2479 87.5414 55.6466 85.6001 54.444C83.6683 53.2413 82.2715 51.4989 81.4098 49.2167C80.5575 46.925 80.3965 44.1504 80.9268 40.8928C81.4476 37.7394 82.4751 35.0832 84.0092 32.9241C85.5528 30.765 87.4278 29.1315 89.6342 28.0235C91.8501 26.9156 94.2128 26.3616 96.7223 26.3616C98.5404 26.3616 100.174 26.6078 101.623 27.1002C103.081 27.5832 104.317 28.2934 105.33 29.2309C106.343 30.1589 107.096 31.3 107.589 32.6542C108.091 34.0084 108.289 35.5567 108.185 37.2991ZM106.955 55.8502L111.784 26.7593H118.816L114.952 50.14H127.054L126.088 55.8502H106.955ZM127.528 55.8502L132.358 26.7593H152.642L151.676 32.4695H138.423L137.457 38.4354H149.673L148.707 44.1599H136.491L135.525 50.14H148.778L147.812 55.8502H127.528ZM156.308 55.8502H148.752L163.396 26.7593H172.757L177.743 55.8502H170.186L166.99 34.0889H166.763L156.308 55.8502ZM157.217 44.4014H173.013L172.104 49.7423H156.308L157.217 44.4014ZM189.584 55.8502H178.675L183.505 26.7593H194.087C197.042 26.7593 199.504 27.3606 201.473 28.5633C203.453 29.7565 204.849 31.4705 205.664 33.7053C206.488 35.9307 206.644 38.5822 206.132 41.6599C205.64 44.6334 204.65 47.1807 203.164 49.3019C201.686 51.4231 199.793 53.0472 197.482 54.1741C195.171 55.2915 192.539 55.8502 189.584 55.8502ZM186.686 49.8559H190.025C191.653 49.8559 193.093 49.5623 194.343 48.9752C195.602 48.3786 196.644 47.4269 197.468 46.1201C198.292 44.8038 198.879 43.0756 199.229 40.9354C199.57 38.89 199.556 37.2754 199.186 36.0917C198.827 34.8985 198.126 34.0462 197.084 33.5349C196.052 33.014 194.703 32.7536 193.036 32.7536H189.542L186.686 49.8559ZM224.771 35.5377C224.846 34.4676 224.562 33.639 223.918 33.0519C223.284 32.4648 222.28 32.1712 220.907 32.1712C219.998 32.1712 219.221 32.2896 218.577 32.5264C217.933 32.7536 217.427 33.0756 217.057 33.4923C216.688 33.8995 216.456 34.3729 216.361 34.9127C216.276 35.3389 216.3 35.7176 216.432 36.0491C216.565 36.3805 216.797 36.6741 217.129 36.9298C217.469 37.1854 217.891 37.408 218.393 37.5974C218.904 37.7868 219.477 37.9525 220.111 38.0945L222.498 38.6627C223.88 38.9752 225.078 39.3919 226.092 39.9127C227.114 40.4241 227.943 41.0443 228.577 41.7735C229.212 42.4932 229.647 43.3218 229.884 44.2593C230.121 45.1968 230.14 46.2479 229.941 47.4127C229.638 49.2498 228.914 50.8265 227.768 52.1428C226.631 53.4591 225.145 54.4676 223.307 55.1684C221.48 55.8692 219.354 56.2195 216.93 56.2195C214.505 56.2195 212.446 55.855 210.751 55.1258C209.065 54.3872 207.843 53.2745 207.086 51.7877C206.328 50.301 206.125 48.426 206.475 46.1627H213.194C213.09 47.1002 213.208 47.8815 213.549 48.5065C213.899 49.1315 214.439 49.605 215.168 49.9269C215.897 50.2489 216.778 50.4099 217.81 50.4099C218.757 50.4099 219.586 50.282 220.296 50.0264C221.016 49.7707 221.589 49.4156 222.015 48.961C222.45 48.5065 222.716 47.9856 222.81 47.3985C222.905 46.8587 222.815 46.39 222.54 45.9923C222.275 45.5945 221.821 45.2489 221.177 44.9553C220.542 44.6618 219.709 44.3966 218.677 44.1599L215.765 43.4497C213.36 42.8625 211.537 41.925 210.296 40.6372C209.065 39.3493 208.629 37.6021 208.989 35.3957C209.292 33.587 210.04 32.0055 211.234 30.6514C212.436 29.2972 213.956 28.2461 215.793 27.4979C217.64 26.7404 219.671 26.3616 221.887 26.3616C224.141 26.3616 226.035 26.7451 227.569 27.5121C229.112 28.2697 230.225 29.3398 230.907 30.7224C231.598 32.0955 231.797 33.7006 231.504 35.5377H224.771Z" fill="white"/>
</svg>
