<svg width="682" height="221" viewBox="0 0 682 221" fill="none" xmlns="http://www.w3.org/2000/svg">
    <path d="M418.99 193.16V163C418.99 151.87 409.68 144 398.36 144C392.712 143.918 387.262 146.075 383.2 150C379.138 146.076 373.687 143.919 368.04 144C356.71 144 347.36 151.9 347.36 163V193.13H366.56V168.31C366.56 162.64 368 161.31 370.01 161.31C372.02 161.31 373.56 162.65 373.56 168.31V193.16H392.75V168.31C392.75 162.64 394.29 161.31 396.3 161.31C398.31 161.31 399.76 162.65 399.76 168.31V193.16H418.99Z" fill="black"/>
    <path d="M278.36 176L278.06 98.8599L256.32 99.0099L256.47 115.81H214.77V137.7L256.77 138.3L256.61 172.48C256.61 178.23 256.85 185.19 260.92 189.99L299.36 220.76L312.27 205.76L278.36 176Z" fill="black"/>
    <path d="M125.96 93.4001C128.398 93.3571 130.832 93.1801 133.25 92.8701V72.1701C131.504 72.8836 129.645 73.2798 127.76 73.3401C124.28 73.3401 120.9 70.3401 120.9 65.7301C120.846 64.7356 120.998 63.7407 121.348 62.808C121.697 61.8754 122.236 61.0253 122.93 60.3112C123.624 59.5972 124.459 59.0347 125.382 58.6593C126.304 58.2839 127.294 58.1037 128.29 58.1301C129.308 58.0936 130.322 58.2636 131.272 58.6299C132.223 58.9962 133.089 59.5513 133.819 60.2615C134.549 60.9717 135.127 61.8224 135.519 62.7623C135.911 63.7022 136.109 64.7117 136.1 65.7301V93.08H155.55V71.6401C155.55 47.7701 142.73 38.0701 127 38.0701C112 38.0701 99.55 49.7901 99.55 67.3201C99.6342 74.2679 102.454 80.9024 107.398 85.7847C112.342 90.6669 119.012 93.4032 125.96 93.4001Z" fill="black"/>
    <path d="M198.76 78.63C198.76 63.85 183.85 62.46 183.85 58.63C183.85 57.78 184.91 57.15 185.75 57.15L198.75 56.81V40.41L176.13 40.25C167.9 40.25 159.56 45.43 159.56 54.3C159.56 69.08 176.13 69.08 176.13 73.3C176.13 74.46 175.39 75.3 172.02 75.3H159.36V93.04H181.22C193.04 93.08 198.76 87.93 198.76 78.63Z" fill="black"/>
    <path d="M227.52 93.55C238.39 93.55 246.4 88.55 252.95 81.23L243.04 69C239.24 73 235.43 76.07 229.52 76.07C222.52 76.07 218.96 70.79 218.96 64.24C218.96 59.7 223.19 54.53 226.57 54.53C228.99 54.3816 231.374 55.1774 233.22 56.75L222.66 62.55L228.66 73.22L252.93 58.89C249.34 46.89 241.86 38.27 226.44 38.27C213.13 38.27 199.72 49.67 199.72 65.19C199.74 81.62 211.25 93.55 227.52 93.55Z" fill="black"/>
    <path d="M276.54 65.9299C276.54 59.6999 278.13 58.2199 280.34 58.2199C282.55 58.2199 284.25 59.6999 284.25 65.9299V93.2799H305.36V65.9299C305.36 59.6999 307.05 58.2199 309.27 58.2199C311.49 58.2199 313.07 59.6999 313.07 65.9299V93.2799L331.72 93.0799V60.2399C331.72 46.6899 317.37 39.2399 311.48 39.2399C305.276 39.1416 299.284 41.4912 294.8 45.7799C290.318 41.4894 284.324 39.1394 278.12 39.2399C265.66 39.2399 255.41 47.8999 255.41 60.1499V93.2999H276.53L276.54 65.9299Z" fill="black"/>
    <path d="M362.94 93.1501C373.82 93.1501 381.94 88.15 388.52 80.83L378.52 68.55C374.71 72.55 370.91 75.6201 365 75.6201C358 75.6201 354.44 70.3401 354.44 63.7901C354.44 59.2501 358.66 54.08 362.04 54.08C364.463 53.9322 366.85 54.7277 368.7 56.3L358.14 62.1001L364.14 72.7701L388.55 58.6401C384.96 46.6401 377.34 37.8201 361.92 37.8201C348.61 37.8201 335.2 49.2201 335.2 64.7401C335.17 81.2201 346.68 93.1501 362.94 93.1501Z" fill="black"/>
    <path d="M412.76 64.88C412.76 60.23 413.92 58.65 416.56 58.65C419.2 58.65 420.36 60.23 420.36 64.88V93.28H441.48V61.6C441.48 49.35 433.03 39.22 416.56 39.22C400.09 39.22 391.64 49.35 391.64 61.6V93.28H412.76V64.88Z" fill="black"/>
    <path d="M97.47 71.4101C97.47 63.1801 94.3 57.1601 88.07 53.3601C89.671 51.6952 90.9174 49.7228 91.7339 47.5622C92.5504 45.4015 92.9198 43.0977 92.82 40.7901C92.82 26.5301 80.82 18.1601 67.75 18.3001C52.53 18.4501 38.69 18.3001 38.69 18.3001C38.69 18.3001 38.69 31.1701 38.76 43.0101V69.9401H61.76V44.4901C61.76 40.2601 63.03 38.7801 65.76 38.7801C67.76 38.7801 70.2 40.1601 70.2 42.4801C70.2 45.6501 68.08 47.4801 64.92 47.4801V63.7001C68.51 63.7001 73.68 63.7001 73.68 68.5601C73.68 69.5601 72.85 75.2801 65.08 74.0901H0V93.4801H74.44C87.12 93.5901 97.47 85.7701 97.47 71.4101Z" fill="black"/>
    <path d="M157.95 174.59C157.95 158.95 136.46 151.46 136.46 147.24C136.46 145.61 137.46 144.85 142.46 144.85H155.26V126H136.07C124.27 126 113.42 130.22 113.42 144.42C113.42 158.62 133.77 166.3 133.77 170.81C133.77 173.4 133.3 175.14 127.16 175.14L62.38 175.42V194.22L133.12 194.12C149.05 194.16 157.95 185.34 157.95 174.59Z" fill="black"/>
    <path d="M209.28 174.56V145.68H190.19V171.49C190.19 175.43 189.19 177.16 186.73 177.16C184.27 177.16 183.28 175.43 183.28 171.49V145.68H164.18V175.33C164.18 183.87 169.84 190.21 177.23 193.85V220.46H195.85V193.85C204.97 190.49 209.28 183 209.28 174.56Z" fill="black"/>
    <path d="M226.99 177.19H215.47V193.31H235.36C246.1 193.31 252.25 188.42 252.25 179.97C252.25 166.54 237.76 165.48 237.76 162.03C237.76 161.26 238.76 160.68 239.48 160.68H250.62V145.33H230.73C223.25 145.33 215.66 150.03 215.66 158.09C215.66 171.53 230.73 171.53 230.73 175.37C230.73 176.42 230.06 177.19 226.99 177.19Z" fill="black"/>
    <path d="M290 168.1C290 183.1 300.47 193.91 315.24 193.91C319.971 193.841 324.635 192.79 328.939 190.825C333.242 188.859 337.091 186.021 340.24 182.49L329.36 171.55C325.91 175.2 322.45 177.98 317.08 177.98C310.74 177.98 307.48 173.18 307.48 167.24C307.48 163.11 311.32 158.41 314.39 158.41C316.589 158.272 318.756 158.989 320.44 160.41L310.84 165.69L316.31 175.38L340.2 162.23C336.94 151.3 328.31 143.62 314.29 143.62C302.19 143.63 290 154 290 168.1Z" fill="black"/>
    <path d="M434.95 177H423.44V193.12H443.3C454.05 193.12 460.19 188.23 460.19 179.78C460.19 166.35 445.7 165.29 445.7 161.84C445.7 161.07 446.7 160.49 447.43 160.49H458.56V145.18H438.7C431.21 145.18 423.63 149.88 423.63 157.94C423.63 171.38 438.7 171.38 438.7 175.22C438.7 176.27 438.02 177 434.95 177Z" fill="black"/>
    <path d="M444.73 74C444.73 79.75 444.97 86.71 449.05 91.51L487.2 121.75L500.4 107.35L465.11 79.4L465.41 0.0200195H444.06L443.77 18.92L403.36 18.7L403.12 36.59H444.71L444.73 74Z" fill="black"/>
    <path d="M501.04 13.81H503.59L507.46 20.16H509.94L505.78 13.71C507.93 13.44 509.57 12.3 509.57 9.71002C509.57 6.82002 507.86 5.54004 504.4 5.54004H498.82V20.19H501.04V13.81ZM501.04 7.39005H504.04C505.59 7.39005 507.24 7.73004 507.24 9.54004C507.24 11.79 505.56 11.93 503.67 11.93H501.02L501.04 7.39005Z" fill="black"/>
    <path d="M503.73 25.53C506.232 25.4906 508.666 24.7132 510.727 23.2953C512.789 21.8773 514.385 19.8821 515.317 17.5601C516.248 15.238 516.473 12.6925 515.963 10.243C515.453 7.7936 514.231 5.54937 512.45 3.79199C510.67 2.03461 508.409 0.84238 505.953 0.364958C503.497 -0.112464 500.955 0.146178 498.646 1.10843C496.336 2.07068 494.362 3.69366 492.972 5.77368C491.581 7.8537 490.836 10.2981 490.83 12.8C490.822 14.4884 491.151 16.1615 491.798 17.7209C492.446 19.2802 493.399 20.6944 494.6 21.8804C495.802 23.0664 497.229 24.0001 498.797 24.6269C500.365 25.2536 502.042 25.5607 503.73 25.53ZM503.73 2.25003C505.835 2.2063 507.905 2.79104 509.676 3.92956C511.448 5.06809 512.839 6.70871 513.673 8.64187C514.507 10.575 514.747 12.713 514.36 14.7827C513.973 16.8523 512.978 18.7597 511.502 20.2613C510.026 21.7628 508.136 22.7904 506.074 23.2126C504.011 23.6349 501.869 23.4326 499.922 22.6318C497.975 21.831 496.31 20.4679 495.142 18.7166C493.973 16.9654 493.353 14.9055 493.36 12.8C493.321 11.4191 493.561 10.0446 494.066 8.75879C494.571 7.47297 495.33 6.30235 496.299 5.31717C497.267 4.33198 498.425 3.55249 499.702 3.02545C500.978 2.49841 502.349 2.23466 503.73 2.25003Z" fill="black"/>
    <path d="M486.29 68.15L486.7 0H468.61L468.3 78.94L622.58 198.76L309.54 198.71L317.94 206.51L305.94 220.91L681.46 220.76L486.29 68.15Z" fill="#F478C4"/>
    <path d="M201.06 198.76L200.96 220.91L289.74 220.76L263.15 198.76H201.06Z" fill="#F478C4"/>
    <path d="M172.17 198.86H62.44V220.76H172.17V198.86Z" fill="#F478C4"/>
</svg>
