<svg width="107" height="136" viewBox="0 0 107 136" fill="none" xmlns="http://www.w3.org/2000/svg">
    <path fill-rule="evenodd" clip-rule="evenodd" d="M48.122 2.1339C34.796 10.9199 46.118 30.1149 59.731 21.8159C67.062 17.3459 66.71 7.2669 59.044 2.0999C54.875 -0.709097 52.422 -0.702097 48.122 2.1339ZM48.956 28.9409C45.014 30.5079 41.036 34.8789 40.382 38.3599C39.693 42.0369 45.566 99.1829 46.983 102.585C48.995 107.414 56.515 108.003 59.359 103.554C61.078 100.865 67.383 45.2559 66.624 39.4719C66.045 35.0509 62.878 31.1679 58.238 29.1909C54.522 27.6079 52.449 27.5519 48.956 28.9409ZM18.349 43.7769C12.501 46.1999 3.853 61.7309 1.203 74.5699C-0.401 82.3399 -0.401 83.2999 1.203 91.0699C5.741 113.056 20.025 128.595 40.513 133.835C53.584 137.178 64.415 136.076 76.845 130.14C105.747 116.337 115.498 77.7599 96.593 52.0059C92.143 45.9449 90.094 44.1349 86.731 43.2959C84.514 42.7419 83.424 43.1979 80.879 45.7429C77.126 49.4959 77.431 52.3189 82.172 57.7179C83.865 59.6469 86.63 64.1719 88.316 67.7729C90.988 73.4779 91.38 75.4129 91.371 82.8199C91.362 89.9479 90.92 92.2769 88.631 97.2499C79.161 117.826 57.358 126.28 37.604 117.036C14.403 106.179 8.46 78.3009 24.936 57.6079C27.147 54.8309 28.956 51.5419 28.956 50.2999C28.956 45.4949 23.017 41.8429 18.349 43.7769Z" fill="#064e3b"/>
</svg>
