<svg width="40" height="40" viewBox="0 0 40 40" fill="none" xmlns="http://www.w3.org/2000/svg">
<g clip-path="url(#clip0_425_134)">
<path d="M36.8624 13.9919C33.482 13.9919 30.9 16.5486 30.8863 19.9702C30.8725 23.3264 33.4293 25.9771 36.7536 26.0515C36.7994 26.0515 36.8452 26.0527 36.891 26.0527C38.0331 26.0527 39.0927 25.717 39.9999 25.1557V14.8797C39.1637 14.37 38.2004 14.0401 37.1327 13.9977C37.0422 13.9942 36.9529 13.9919 36.8635 13.9919H36.8624Z" fill="#1D293D"/>
<path d="M2.58883 13.8533C1.05729 15.1306 0.655213 16.9438 1.01147 19.5315C4.00812 17.2737 6.54885 15.3596 9.39888 13.2119C6.91198 12.1157 4.4079 12.3367 2.58769 13.8533H2.58883Z" fill="#1D293D"/>
<path d="M0 0V2.59565C6.99905 -0.296678 15.8939 1.37342 20.5046 7.9244C18.0509 11.2829 16.6431 15.3643 16.54 19.5601C13.2902 22.0493 10.0266 24.5487 6.99447 26.8671C7.39998 27.0115 7.80664 27.0011 8.06209 27.0011C11.2626 27.0011 14.1195 25.5258 16.8172 23.3826C17.4644 27.1936 19.193 30.6415 21.6879 33.4124C19.6764 35.6438 17.0291 36.7984 14.2753 37.7343C9.44586 39.3757 4.32315 39.0241 0 37.0962V40H39.9989V38.504C38.9908 38.6712 37.9644 38.7812 36.9117 38.7824H36.8773C30.9826 38.7824 25.7155 36.1214 22.2389 31.9485C20.0052 29.2669 18.5194 25.9565 18.075 22.3265C17.9879 21.6105 17.9295 20.8855 17.9261 20.1478C17.9238 19.5796 17.949 19.0115 17.9982 18.4444C18.2812 15.1695 19.4358 11.9633 21.3213 9.21191C24.5162 4.55327 29.8371 1.22108 36.7994 1.21993C36.8544 1.21993 36.9094 1.21993 36.9644 1.21993C38.0206 1.22795 39.0217 1.33333 39.9977 1.48225V0H0Z" fill="#1D293D"/>
</g>
<defs>
<clipPath id="clip0_425_134">
<path d="M0 5C0 2.23858 2.23858 0 5 0H35C37.7614 0 40 2.23858 40 5V35C40 37.7614 37.7614 40 35 40H5C2.23858 40 0 37.7614 0 35V5Z" fill="white"/>
</clipPath>
</defs>
</svg>
