<svg width="189" height="189" viewBox="0 0 189 189" fill="none" xmlns="http://www.w3.org/2000/svg">
<g clip-path="url(#clip0_213_84)">
<path d="M173.436 65.8334C157.531 65.8334 145.383 77.8629 145.319 93.9615C145.254 109.753 157.283 122.224 172.924 122.575C173.14 122.575 173.355 122.58 173.571 122.58C178.944 122.58 183.929 121.001 188.198 118.36V70.0103C184.264 67.612 179.731 66.0598 174.708 65.8604C174.282 65.8442 173.862 65.8334 173.441 65.8334H173.436Z" fill="#F6F4F0"/>
<path d="M12.1806 65.1813C4.97474 71.1906 3.083 79.7223 4.75915 91.8973C18.8582 81.2745 30.8123 72.2685 44.2215 62.1631C32.5208 57.0053 20.7392 58.0455 12.1752 65.1813H12.1806Z" fill="#F6F4F0"/>
<path d="M0 0V12.2127C32.9302 -1.3959 74.7801 6.46208 96.4731 37.285C84.9287 53.0872 78.3049 72.2902 77.8198 92.0321C62.5297 103.744 47.1748 115.504 32.9086 126.412C34.8166 127.091 36.7298 127.043 37.9317 127.043C52.9901 127.043 66.4317 120.101 79.1241 110.017C82.1692 127.948 90.3021 144.171 102.041 157.208C92.5765 167.707 80.1212 173.14 67.1647 177.543C44.4423 185.266 20.3402 183.612 0 174.541V188.203H188.193V181.165C183.45 181.952 178.621 182.469 173.668 182.474H173.506C145.771 182.474 120.99 169.954 104.633 150.32C94.1233 137.703 87.133 122.127 85.0419 105.048C84.6322 101.679 84.3574 98.2678 84.3412 94.797C84.3304 92.1237 84.449 89.4505 84.6808 86.7827C86.012 71.3739 91.4446 56.2886 100.316 43.3428C115.347 21.4235 140.382 5.74527 173.14 5.73988C173.398 5.73988 173.657 5.73988 173.916 5.73988C178.885 5.77761 183.595 6.27345 188.187 6.97409V0H0Z" fill="#F6F4F0"/>
</g>
<defs>
<clipPath id="clip0_213_84">
<path d="M0 5C0 2.23857 2.23858 0 5 0H183.198C185.959 0 188.198 2.23858 188.198 5V183.203C188.198 185.965 185.959 188.203 183.198 188.203H5C2.23858 188.203 0 185.965 0 183.203V5Z" fill="white"/>
</clipPath>
</defs>
</svg>
