<svg width="442" height="90" viewBox="0 0 442 90" fill="none" xmlns="http://www.w3.org/2000/svg">
<path d="M253.827 42.4286C241.161 42.4286 230.822 52.7143 230.822 65.3143C230.822 77.9143 241.161 88.2 253.827 88.2C266.492 88.2 276.832 77.9143 276.832 65.3143C276.832 52.7143 266.492 42.4286 253.827 42.4286ZM253.827 77.6571C246.848 77.6571 241.42 72 241.42 65.3143C241.42 58.6286 247.106 52.9714 253.827 52.9714C260.547 52.9714 266.234 58.6286 266.234 65.3143C266.234 72 260.806 77.6571 253.827 77.6571Z" fill="#D9D9D9"/>
<path d="M316.637 42.9429C303.972 42.9429 293.633 53.2286 293.633 65.8286C293.633 78.4286 303.972 88.7143 316.637 88.7143C329.303 88.7143 339.642 78.4286 339.642 65.8286C339.642 53.2286 329.303 42.9429 316.637 42.9429ZM316.637 78.1714C309.658 78.1714 304.23 72.5143 304.23 65.8286C304.23 58.8857 309.917 53.4857 316.637 53.4857C323.616 53.4857 329.044 59.1429 329.044 65.8286C329.044 72.7714 323.616 78.1714 316.637 78.1714Z" fill="#D9D9D9"/>
<path d="M341.451 30.8571L348.43 36.2571V1.54286H341.451V30.8571ZM57.124 20.5714C56.3485 19.5429 54.7976 19.0286 52.9883 19.0286V18.7714C54.5392 18.5143 55.8316 17.7429 56.607 16.7143C57.6409 15.4286 58.1579 13.3714 58.1579 10.8C58.1579 7.45714 57.3824 5.14286 56.09 3.6C54.7976 2.05714 51.9544 1.28571 47.8187 1.28571H29.7251V40.1143H48.3357C52.2128 40.1143 55.0561 39.3429 56.607 38.0571C58.4164 36.5143 59.1918 31.1143 59.1918 27.2571C59.1918 25.9714 59.1918 24.6857 58.9333 23.4C58.4164 22.6286 57.8994 21.6 57.124 20.5714ZM36.4456 7.45714H46.0093C47.3017 7.45714 48.3357 7.45714 49.1111 7.71428C49.6281 7.97143 50.145 8.22857 50.662 8.48571C51.1789 9.25714 51.4374 10.2857 51.4374 11.5714C51.4374 12.8571 51.1789 14.1429 50.9205 14.9143C50.4035 15.6857 49.628 16.2 48.5941 16.4571C48.0772 16.4571 47.3017 16.4571 46.2678 16.4571H36.7041V7.45714H36.4456ZM49.6281 34.2C48.8526 34.4571 47.8187 34.4571 46.7848 34.4571H36.4456V21.8571H47.0433C48.8526 21.8571 50.4035 22.1143 50.9205 22.8857C51.4374 23.6571 51.9544 24.9429 51.9544 27C51.9544 29.3143 51.1789 33.4286 49.6281 34.2ZM361.613 1.54286H354.634V40.3714H378.414V34.4571H361.613V1.54286ZM434.246 22.6286C436.572 22.1143 438.123 21.3429 439.157 20.0571C440.191 18.7714 440.708 16.2 440.708 12.3429C440.708 8.74286 439.932 5.91428 438.64 4.37143C436.83 2.57143 433.729 1.54286 429.076 1.54286H411.241V40.3714H418.22V25.4571H427.784C428.818 25.4571 429.851 25.4571 430.368 25.7143C431.144 25.9714 431.661 26.2286 432.178 26.7429C432.695 27.2571 432.953 28.0286 433.212 28.8C433.212 29.5714 433.47 33.4286 433.47 34.7143V40.1143H440.449V33.4286C440.449 30.8571 439.932 25.9714 439.157 24.4286C437.864 23.4 436.313 22.6286 434.246 22.6286ZM432.695 18.2571C432.178 18.7714 431.661 19.0286 430.885 19.2857C430.11 19.5429 429.334 19.5429 428.042 19.5429H417.961V7.45714H427.784C429.076 7.45714 430.11 7.45714 430.885 7.71428C431.661 7.97143 432.178 8.22857 432.695 8.74286C433.212 9.51429 433.47 11.0571 433.47 13.3714C433.729 15.6857 433.47 17.4857 432.695 18.2571ZM316.12 1.54286L312.243 12.6L308.625 24.4286H333.18L333.439 24.6857L325.943 1.54286H316.12ZM317.154 19.5429L321.29 6.68571L325.426 19.5429H317.154ZM388.236 22.1143H405.037V16.4571H388.236V7.45714H406.071V1.54286H381.257V40.3714H406.071V34.4571H388.236V22.1143ZM98.7392 40.1143H105.718V1.54286H98.7392V40.1143ZM139.062 34.4571L123.553 1.54286H112.18V40.3714H118.901L118.642 22.3714L118.384 7.45714H118.642L133.892 40.3714H145.524V1.54286H138.545L139.062 34.4571ZM165.685 23.6571H174.732V24.6857C174.732 26.2286 174.732 27.5143 174.474 28.2857C174.215 29.3143 173.957 32.9143 173.44 33.4286C172.923 33.9429 172.147 34.2 171.372 34.4571C170.596 34.7143 169.821 34.7143 168.529 34.7143C168.012 34.7143 167.236 34.7143 166.202 34.7143C164.393 34.7143 163.101 34.7143 162.067 34.7143C160.516 34.4571 159.223 33.9429 158.448 33.4286C157.414 32.4 157.156 27.2571 157.156 23.9143V15.1714C157.156 11.8286 157.672 9.51429 158.706 8.74286C159.482 8.22857 160.257 7.71428 161.291 7.71428C162.325 7.45714 164.134 7.45714 166.461 7.45714C168.27 7.45714 169.821 7.45714 170.855 7.71428C171.889 7.97143 172.664 8.22857 173.181 8.74286C173.957 9.51429 174.474 10.8 174.474 12.8571H181.453V11.3143C181.453 7.71428 180.419 4.88571 178.351 3.34286C177.317 2.31428 175.766 1.8 174.215 1.54286C172.664 1.28571 170.596 1.28571 168.529 1.28571H165.944C164.134 1.28571 162.325 1.28571 161.033 1.54286C159.482 1.8 158.189 2.05714 156.639 2.57143C155.346 3.08571 154.054 3.85714 153.278 4.62857C152.503 5.4 151.986 6.17143 151.469 7.2C150.952 8.22857 150.694 9.25714 150.435 10.8C150.177 12.3429 150.177 13.8857 150.177 15.9429V24.9429C150.177 29.8286 151.211 36.2571 153.278 38.0571C154.312 38.8286 155.346 39.6 156.639 40.1143C157.931 40.6286 159.223 40.8857 160.774 40.8857C162.325 40.8857 163.876 41.1429 165.944 41.1429C168.529 41.1429 170.338 41.1429 171.63 40.8857C174.732 40.6286 177.058 39.8571 178.609 38.8286C179.902 37.8 180.677 36.5143 181.194 34.7143C181.711 32.9143 181.711 28.0286 181.711 25.9714V18.2571H165.685V23.6571ZM91.7602 20.0571C92.7941 18.7714 93.3111 16.2 93.3111 12.3429C93.3111 8.74286 92.5357 5.91428 91.2433 4.37143C89.6924 2.57143 86.3321 1.54286 81.6795 1.54286H63.8444V40.3714H70.8234V25.4571H80.3871C81.421 25.4571 82.4549 25.4571 82.9719 25.7143C83.7473 25.9714 84.2643 26.2286 84.7813 26.7429C85.2982 27.2571 85.5567 28.0286 85.8152 28.8C85.8152 29.5714 86.0737 33.4286 86.0737 34.7143V40.1143H93.0526V33.4286C93.0526 30.8571 92.5357 25.9714 91.7602 24.4286C90.7263 23.1429 89.1754 22.3714 86.8491 22.3714C89.1754 21.8571 90.7263 21.0857 91.7602 20.0571ZM85.2982 18.2571C84.7813 18.7714 84.2643 19.0286 83.4889 19.2857C82.7134 19.5429 81.938 19.5429 80.6456 19.5429H70.5649V7.45714H80.3871C81.6795 7.45714 82.7134 7.45714 83.4889 7.71428C84.2643 7.97143 84.7813 8.22857 85.2982 8.74286C85.8152 9.51429 86.0737 11.0571 86.0737 13.3714C86.3321 15.6857 85.8152 17.4857 85.2982 18.2571ZM241.42 7.45714H252.018V24.4286H258.996V7.45714H269.594V1.54286H241.42V7.45714ZM209.368 1.54286L205.491 12.6L197.22 40.3714H204.457L208.593 24.9429H220.225L223.068 34.9714L228.496 30.6L219.449 1.54286H209.368ZM210.144 19.5429L214.28 6.68571L218.415 19.5429H210.144ZM290.272 1.54286H272.437V24.4286H300.095C299.061 23.4 297.51 22.6286 295.442 22.3714C297.768 21.8571 299.319 21.0857 300.353 20.0571C301.387 18.7714 301.904 16.2 301.904 12.3429C301.904 8.74286 301.129 5.91428 299.836 4.37143C298.027 2.57143 294.925 1.54286 290.272 1.54286ZM293.891 18.2571C293.374 18.7714 292.857 19.0286 292.082 19.2857C291.306 19.5429 290.531 19.5429 289.239 19.5429H279.158V7.45714H288.98C290.272 7.45714 291.306 7.45714 292.082 7.71428C292.857 7.97143 293.374 8.22857 293.891 8.74286C294.408 9.51429 294.667 11.0571 294.667 13.3714C294.925 15.6857 294.667 17.4857 293.891 18.2571Z" fill="#D9D9D9"/>
<path d="M24.0386 30.6V46.0286H216.606L238.577 28.8H331.371L353.858 46.0286H440.449V54.5143H343.261C339.642 43.4571 329.303 38.3143 316.896 38.3143C304.489 38.3143 294.15 43.4571 290.531 54.5143H280.709C277.349 43.2 266.751 37.8 254.085 37.8C241.42 37.8 230.822 43.2 227.462 54.5143H15.5088V38.5714H1.29239V34.9714L8.01286 30.8571L24.0386 30.6Z" fill="#D9D9D9"/>
</svg>
