<svg width="450" height="91" viewBox="0 0 450 91" fill="none" xmlns="http://www.w3.org/2000/svg">
<path fill-rule="evenodd" clip-rule="evenodd" d="M29.1629 20.7364V40.6665H40.4757C53.2027 40.6665 55.0827 40.3894 56.8876 38.2493C57.4481 37.5849 58.1788 36.1264 58.512 35.0079C59.3481 32.1978 59.7236 26.1011 59.1819 24.1245C58.6027 22.0099 56.5828 19.629 55.0276 19.2269L53.7768 18.9036L55.2098 18.0199C57.1265 16.838 58.0581 14.784 58.2507 11.3142C58.5523 5.87887 56.6204 2.27511 52.8436 1.22878C51.9587 0.983636 46.7517 0.809845 40.2488 0.80865L29.1629 0.806258V20.7364ZM63.9187 20.8954V41.0651H67.7139H71.509V33.4916V25.9182H77.4826C81.0098 25.9182 83.8549 26.0995 84.4298 26.3606C86.0382 27.0921 86.4001 28.4971 86.601 34.7871L86.7888 40.6665H90.5964H94.4043L94.1462 35.0027C93.7987 27.3795 93.2985 24.9755 91.7984 23.7159C91.1521 23.1734 90.3675 22.7294 90.0547 22.7294C89.0647 22.7294 89.4382 22.1586 90.9679 21.3343C93.5566 19.9392 94.0803 18.497 94.0803 12.7643C94.0803 7.14084 93.6581 5.44917 91.8032 3.63952C89.4306 1.32524 88.0768 1.09963 75.4041 0.903118L63.9187 0.725342V20.8954ZM99.7399 1.07213C99.5933 1.21801 99.4735 10.1866 99.4735 21.0022V40.6665H103.269H107.064V20.7364V0.806258H103.535C101.594 0.806258 99.8861 0.925839 99.7399 1.07213ZM113.456 20.9357V41.0651H117.017H120.578L120.396 25.4199C120.295 16.8153 120.162 9.27575 120.098 8.66629C120.034 8.05643 120.107 7.69769 120.259 7.86909C120.411 8.04009 123.932 15.5741 128.081 24.6104L135.627 41.0407L141.72 41.0527L147.812 41.0651V20.9357V0.806258H144.157H140.503L140.715 17.4343C140.92 33.4908 140.903 34.0154 140.224 32.6809C139.837 31.9211 136.416 24.6626 132.621 16.551C128.826 8.43949 125.546 1.57875 125.332 1.30451C125.053 0.946964 123.321 0.806258 119.2 0.806258H113.456V20.9357ZM161.812 1.22678C159.219 1.75573 155.945 3.47251 154.998 4.79945C152.78 7.90656 152.478 9.31083 152.286 17.3797C152.097 25.3486 152.577 31.5078 153.671 35.1861C154.387 37.5897 156.022 39.324 158.879 40.7087C160.677 41.5809 161.264 41.6387 168.386 41.6506C176.961 41.6646 179.507 41.1747 181.941 39.043C184.379 36.9064 184.758 35.1709 184.762 26.1175L184.765 18.1454H176.575H168.386L168.268 21.0353L168.151 23.9252H172.763H177.374L177.331 26.2171C177.308 27.4775 177.083 29.675 176.832 31.1C176.205 34.6563 175.333 35.0964 168.985 35.0549C166.458 35.0382 163.672 34.8086 162.793 34.5447C160.163 33.7543 160.02 33.1373 159.87 21.9322C159.678 7.58449 159.795 7.38319 168.315 7.38319C175.456 7.38319 176.295 7.78777 177.204 11.6682C177.461 12.7639 177.463 12.7643 181.058 12.7643H184.656L184.501 10.0455C184.29 6.31892 182.968 3.80135 180.381 2.20495L178.439 1.00556L171.015 0.934608C166.932 0.895545 162.791 1.02668 161.812 1.22678ZM210.797 7.27238C209.562 10.8411 206.832 19.5904 204.729 26.7154C202.626 33.8404 200.812 39.9837 200.698 40.3675C200.511 40.9973 200.86 41.0651 204.297 41.0651H208.103L208.539 39.5703C208.779 38.7484 209.74 35.2056 210.676 31.6979L212.377 25.3203L218.215 25.2103L224.052 25.0999L224.707 27.4026C225.068 28.6689 225.758 31.0334 226.241 32.6573L227.118 35.6102L229.711 33.4924C231.138 32.3277 232.419 31.2682 232.559 31.1379C232.698 31.0075 230.72 24.1743 228.161 15.9531L223.51 1.00556L218.275 0.894748L213.041 0.783936L210.797 7.27238ZM245.687 3.99507V7.18389H251.073H256.458L256.566 15.8535L256.674 24.5231L260.369 24.6379L264.064 24.7523V15.9683V7.18389H269.457H274.85V3.99507V0.806258H260.269H245.687V3.99507ZM277.647 12.7276V24.7224H291.852C306.654 24.7224 307.295 24.6387 303.941 23.1399L302.369 22.4376L304.269 21.4873C307.205 20.0189 307.808 18.4974 307.808 12.565C307.808 8.26012 307.709 7.58249 306.81 5.78918C305.76 3.69533 304.099 2.32692 301.663 1.54885C300.773 1.26425 295.885 1.01911 288.932 0.909895L277.647 0.732517V12.7276ZM322.195 1.29255C322.096 1.57317 321.285 3.86553 320.392 6.38669C318.561 11.5542 314.8 23.5852 314.8 24.2724C314.8 24.5972 318.3 24.7224 327.384 24.7224C337.189 24.7224 339.966 24.6124 339.96 24.2241C339.955 23.9503 338.283 18.6138 336.245 12.3657L332.537 1.00556L327.456 0.89395C323.606 0.809447 322.331 0.905908 322.195 1.29255ZM348.357 16.0879V31.3695L351.453 33.7515C353.156 35.0617 354.774 36.2671 355.048 36.4305C355.445 36.6665 355.548 33.028 355.548 18.7669V0.806258H351.952H348.357V16.0879ZM361.807 1.07213C361.66 1.21801 361.54 10.2762 361.54 21.2015V41.0651H373.924H386.309V37.8762V34.6874H377.72H369.13V17.7468V0.806258H365.602C363.661 0.806258 361.953 0.925839 361.807 1.07213ZM389.105 20.9357V41.0651H401.889H414.673V37.8762V34.6874H405.484H396.296V28.5091V22.3308H404.885H413.474V19.3413V16.3517H404.885H396.296V11.7678V7.18389H405.484H414.673V3.99507V0.806258H401.889H389.105V20.9357ZM419.866 20.899V41.0651H423.461H427.057V33.4916V25.9182H433.023C436.305 25.9182 439.442 26.09 439.995 26.2996C441.696 26.945 442.126 28.4346 442.441 34.7871L442.734 40.6665H446.337H449.94L449.706 34.1892C449.577 30.6269 449.261 26.9482 449.002 26.015C448.595 24.5478 448.276 24.2018 446.648 23.4564L444.765 22.5942L446.397 21.75C449.043 20.3812 449.997 18.0051 450 12.7759C450.003 5.88445 448.736 3.47012 444.207 1.73978C442.738 1.17855 440.52 1.03545 431.152 0.898335L419.866 0.732517V20.899ZM49.0864 7.62434C50.6831 8.18 51.1366 9.02663 51.1294 11.4426C51.1166 16.0073 50.5018 16.3517 42.3661 16.3517H36.3538V11.7678V7.18389H42.0869C45.2421 7.18389 48.3892 7.38199 49.0864 7.62434ZM84.6807 7.88224C86.3078 8.69977 86.5954 9.51053 86.6498 13.436C86.7281 19.0459 85.9551 19.5406 77.1147 19.5406H71.1095V13.3622V7.18389L77.2018 7.18469C82.2058 7.18509 83.5417 7.30945 84.6807 7.88224ZM220.029 12.7643C220.899 15.5047 221.737 18.1502 221.891 18.6437C222.169 19.5334 222.139 19.5406 218.107 19.5406C215.034 19.5406 214.082 19.419 214.205 19.0423C214.294 18.7685 215.168 16.003 216.145 12.8967C217.123 9.79075 218.041 7.36924 218.185 7.51553C218.329 7.66221 219.16 10.0239 220.029 12.7643ZM297.716 7.60202C299.65 8.13774 300.073 9.00869 300.306 12.9277C300.665 18.9733 299.853 19.5406 290.843 19.5406H284.838V13.3622V7.18389L290.53 7.18628C293.661 7.18748 296.895 7.37442 297.716 7.60202ZM331.472 19.3807C331.367 19.4851 329.566 19.519 327.469 19.456L323.657 19.3413L325.433 13.7608C326.41 10.6916 327.319 7.91134 327.454 7.58249C327.592 7.24488 328.561 9.63968 329.68 13.088C330.77 16.4446 331.577 19.2763 331.472 19.3807ZM439.936 7.60202C441.824 8.12539 442.082 8.64437 442.427 12.5933C442.798 16.8456 442.174 18.5022 439.972 19.1121C439.131 19.3452 435.79 19.537 432.55 19.5382L426.657 19.5406V13.3622V7.18389L432.55 7.18628C435.79 7.18748 439.114 7.37442 439.936 7.60202ZM49.9996 22.4886C52.1177 23.4409 52.1988 30.8449 50.1234 33.7906C49.5106 34.6607 49.2889 34.6874 42.7229 34.6874H35.9543V28.2695V21.8516L42.6458 22.0215C46.3263 22.1147 49.6353 22.3248 49.9996 22.4886ZM231.589 37.8862L220.488 46.6455H122.037H23.5868L23.4785 38.7731L23.3703 30.9007L14.9925 31.057L6.61439 31.2132L3.30739 33.2389L0 35.265V37.1683V39.0721H7.18286H14.3653L14.4736 47.343L14.5815 55.614L123.089 55.7145L231.598 55.8149L232.461 53.4516C236.137 43.3937 248.475 37.319 262.466 38.679C267.484 39.1665 270.376 39.9442 274.303 41.8615C279.598 44.4476 283.305 48.4037 285.296 53.5935L286.147 55.8133H291.057H295.968L297.41 52.821C299.135 49.2424 302.726 45.2428 305.954 43.304C311.238 40.1307 317.266 38.8345 325.099 39.1872C333.964 39.5866 339.493 41.712 344.402 46.6076C346.716 48.9151 347.786 50.3696 348.901 52.7242L350.365 55.8133H400.097H449.828V51.2294V46.6455L405.384 46.6351L360.941 46.6252L349.585 37.8659L338.228 29.107L290.46 29.117L242.691 29.1273L231.589 37.8862ZM253.059 43.6145C240.864 46.5702 232.883 59.1484 235.454 71.3588C237.32 80.2197 244.916 87.9211 253.555 89.7104C256.861 90.3952 263.279 90.0138 266.234 88.9571C277.231 85.0237 283.833 73.9816 281.893 62.7658C280.988 57.5297 279.102 53.9965 275.088 50.0165C271.609 46.5674 268.588 44.7964 264.266 43.6731C261.479 42.9489 255.925 42.9198 253.059 43.6145ZM319.394 43.7154C313.613 44.9164 309.684 47.0266 305.975 50.9225C298.716 58.5477 297.231 69.0083 302.094 78.2602C303.676 81.2708 308.196 85.9022 311.204 87.5947C315.249 89.8703 318.129 90.6205 322.789 90.6137C326.226 90.6085 327.567 90.4176 330.211 89.5574C339.774 86.4459 346.498 77.2924 346.506 67.3728C346.512 60.6021 344.351 55.3777 339.579 50.6275C336.114 47.178 333.014 45.3847 328.544 44.2439C325.742 43.5288 321.476 43.2825 319.394 43.7154ZM264.191 55.4056C266.551 56.6006 269.047 59.2365 270.172 61.7222C271.368 64.3641 271.343 68.84 270.117 71.5581C268.421 75.3197 264.827 78.1582 260.868 78.8637C251.408 80.549 243.826 71.769 246.769 62.5358C247.641 59.7978 251.406 55.8612 254.077 54.8942C256.802 53.9072 261.722 54.1563 264.191 55.4056ZM328.032 55.7037C330.662 56.8672 332.979 59.1142 334.244 61.7282C335.68 64.695 335.796 69.359 334.503 72.2046C333.308 74.8354 331.061 77.1413 328.447 78.4204C326.547 79.3492 325.673 79.5266 322.989 79.5266C320.298 79.5266 319.432 79.35 317.511 78.4097C310.074 74.7724 308.075 64.9971 313.529 58.9444C315.199 57.0913 317.28 55.726 319.593 54.9667C321.298 54.4071 326.036 54.8208 328.032 55.7037Z" fill="currentColor"/>
</svg>
