<svg width="450" height="79" viewBox="0 0 450 79" fill="none" xmlns="http://www.w3.org/2000/svg">
<path fill-rule="evenodd" clip-rule="evenodd" d="M331.489 1.63174C330.512 4.17773 330.986 10.0001 332.275 11.2898C334.043 13.0573 342.62 13.0573 344.388 11.2898C345.925 9.75231 346.137 2.76655 344.69 1.32032C344.111 0.740692 341.322 0.342041 337.848 0.342041C333.253 0.342041 331.877 0.620852 331.489 1.63174ZM277.764 2.48367C277.448 2.79998 277.189 18.0001 277.189 36.2614C277.189 73.3905 276.664 70.4524 283.303 70.4524C288.316 70.4524 289.417 69.8426 289.417 67.0659V64.6691L292.475 67.0642C296.644 70.3301 300.958 71.5562 306.511 71.0532C318.864 69.9331 325.288 61.0804 325.288 45.18C325.288 33.7194 322.416 26.7475 315.769 22.0762C309.47 17.6495 296.665 18.3066 292.166 23.2869C290.666 24.9499 290.634 24.7926 290.233 13.6793L289.825 2.38013L284.082 2.14371C280.924 2.01409 278.082 2.16736 277.764 2.48367ZM387.006 2.48367C386.69 2.79998 386.431 8.01505 386.431 14.0714V25.0836L384.585 23.3496C380.392 19.4104 372.13 17.9789 365.009 19.9566C360.865 21.1077 356.621 24.9907 354.007 30.0248C352.125 33.6502 351.813 35.3581 351.541 43.5496C351.272 51.6595 351.468 53.559 352.996 57.6254C355.152 63.3598 357.888 66.7373 362.132 68.9026C368.739 72.2736 378.303 71.6687 383.726 67.5379C386.946 65.0857 387.246 65.0832 387.246 67.5118C387.246 68.5847 387.826 69.6852 388.535 69.9575C390.392 70.67 397.253 70.5437 398.464 69.7749C399.27 69.2629 399.447 61.9062 399.279 35.751L399.067 2.38013L393.324 2.14371C390.166 2.01409 387.323 2.16736 387.006 2.48367ZM219.584 9.2754C215.261 10.305 210.96 12.9374 208.369 16.1389C206.275 18.7264 205.856 20.0267 205.587 24.782C205.323 29.4696 205.608 31.1148 207.338 34.8942L209.404 39.4073L205.477 41.8237C192.847 49.5954 190.702 65.9115 201.342 73.2845C209.188 78.7221 217.614 79.0172 230.761 74.315L238.547 71.5309L243.204 75.1277L247.861 78.7254L251.032 76.2136C254.703 73.3065 259.254 68.3026 259.254 67.1743C259.254 66.7471 257.913 65.1696 256.274 63.6672L253.294 60.9361L257.178 57.3385C259.315 55.3591 261.389 53.6177 261.788 53.4685C263.104 52.9761 262.547 50.4326 260.525 47.691C256.613 42.3895 256.17 42.3724 249.844 47.2842C246.724 49.707 243.755 51.6921 243.246 51.6954C242.135 51.7036 230.952 41.4226 231.536 40.9302C231.76 40.7411 234.266 38.791 237.105 36.5964C243.889 31.3528 246.541 26.8992 246.032 21.6042C245.245 13.4152 238.314 8.44794 227.867 8.58571C224.728 8.62729 221.001 8.93789 219.584 9.2754ZM13.5259 20.6871C8.80571 22.5858 4.6211 26.3693 2.21534 30.9134C-0.179008 35.4363 -0.794512 50.4937 1.17265 56.4173C2.98737 61.8802 7.1948 66.5572 12.405 68.9034C18.5975 71.6915 29.657 71.6899 35.3555 68.9002C40.5616 66.3509 44.3305 62.4834 46.084 57.8904C48.0838 52.6541 47.1194 51.7019 39.814 51.7019C34.2044 51.7019 34.1571 51.7207 33.0517 54.3677C32.4386 55.8344 31.219 57.6841 30.341 58.479C26.8021 61.6812 18.3415 60.8334 15.8469 57.0262C13.8781 54.0205 12.9406 46.0214 13.8227 39.7473C14.4789 35.0809 15.0121 33.8099 17.1032 31.9324C19.0883 30.1503 20.3959 29.6905 23.4816 29.6905C28.0355 29.6905 30.275 31.0398 33.0696 35.4673C35.0686 38.6329 35.1248 38.6581 40.273 38.6581C46.6604 38.6581 47.7585 37.706 46.5454 33.2173C45.374 28.8859 41.7274 24.7657 36.5767 21.9531C32.8275 19.9061 31.1725 19.5343 24.8732 19.3216C19.0434 19.1251 16.7127 19.4055 13.5259 20.6871ZM65.1108 20.1784C57.6514 22.96 52.6777 27.9272 53.1652 32.1085C53.3894 34.026 53.7521 34.1923 58.2131 34.4222C62.6081 34.6488 63.2374 34.4613 65.5502 32.2308C68.8601 29.0384 72.1781 27.8514 75.9893 28.4954C79.8666 29.15 82.5251 32.2691 82.1835 35.7608C81.9495 38.1503 81.7449 38.2742 77.0483 38.8774C57.578 41.3761 49.7485 46.3638 49.7412 56.2689C49.7314 69.1464 68.287 76.0889 79.6978 67.4776C81.6789 65.9824 82.3474 65.7819 82.3474 66.6843C82.3474 69.0322 84.8029 70.4524 88.8611 70.4524C95.8281 70.4524 95.3911 71.7429 95.3911 51.181C95.3911 31.6593 94.9729 29.1158 91.072 24.9345C87.5429 21.1509 83.2743 19.6248 75.4179 19.3387C70.6186 19.1634 67.0535 19.4536 65.1108 20.1784ZM149.773 20.3422C142.622 22.9665 138.599 28.1856 138.599 34.8363C138.599 42.0169 143.689 46.3108 155.763 49.3157C163.876 51.3351 166.838 52.7536 167.537 54.9539C168.818 58.991 165.671 61.4848 159.295 61.4848C155.333 61.4848 153.36 60.7021 149.745 57.6947C147.043 55.4471 140.713 55.0436 138.143 56.9553C136.579 58.1187 136.579 58.1668 138.192 61.2353C140.319 65.2821 146.387 69.2768 152.262 70.4972C160.85 72.2809 172.371 70.0774 177.176 65.7338C179.441 63.6843 181.806 58.6445 181.806 55.8637C181.806 47.8736 176.458 43.3295 163.408 40.2299C154.4 38.0899 152.531 37.1948 151.911 34.7238C150.3 28.3063 159.925 26.1157 166.523 31.3985C169.249 33.5809 170.094 33.8214 174.268 33.6037C178.745 33.3697 178.964 33.2556 179.219 31.0365C179.574 27.9313 173.772 22.2874 168.312 20.427C163.56 18.808 154.071 18.7648 149.773 20.3422ZM417.986 20.3422C416.285 20.9667 413.8 22.2556 412.464 23.207C407.187 26.9644 405.217 35.6255 408.438 40.9074C411.069 45.2241 414.061 46.6727 428.243 50.4946C433.105 51.8047 436.16 54.0148 436.16 56.2224C436.16 56.9154 435.259 58.3828 434.159 59.4834C432.557 61.0861 431.328 61.4848 427.991 61.4848C423.558 61.4848 421.646 60.7625 417.958 57.6947C415.256 55.4471 408.926 55.0436 406.356 56.9553C404.791 58.1187 404.791 58.1668 406.405 61.2353C414.061 75.8036 446.646 73.6611 449.701 58.3885C451.525 49.2685 444.986 42.9381 430.622 39.9169C423.128 38.3402 420.734 37.1557 420.123 34.7238C418.504 28.2704 428.757 26.004 434.955 31.4458C437.418 33.6086 438.171 33.8262 442.43 33.6053C446.962 33.3697 447.177 33.2597 447.431 31.0365C447.787 27.9313 441.985 22.2874 436.524 20.427C431.773 18.808 422.284 18.7648 417.986 20.3422ZM104.554 20.8534C103.129 22.2792 103.098 68.0499 104.522 69.4741C105.069 70.0211 107.692 70.4524 110.473 70.4524C113.254 70.4524 115.877 70.0211 116.424 69.4741C117.114 68.7844 117.403 64.1017 117.403 53.6153C117.403 43.8145 117.735 38.0051 118.377 36.5972C119.81 33.4512 123.068 32.1363 129.427 32.1363C132.684 32.1363 135.419 31.7286 135.99 31.158C137.259 29.8887 137.259 22.1553 135.99 20.886C133.398 18.2944 121.271 20.6887 118.218 24.3948C117.073 25.7848 116.969 25.7016 116.587 23.0977L116.18 20.3153L110.872 20.0789C107.447 19.9256 105.207 20.2004 104.554 20.8534ZM230.58 22.6567C230.781 24.4127 230.181 25.6861 228.178 27.7519C226.71 29.2666 225.044 30.5058 224.475 30.5058C223.05 30.5058 221.753 27.8408 221.753 24.9108C221.753 21.4925 223.75 19.7667 227.357 20.0683C229.936 20.2835 230.347 20.6137 230.58 22.6567ZM332.385 20.4189C332.069 20.7352 331.81 31.8998 331.81 45.229C331.81 66.5751 331.963 69.5214 333.099 69.9575C335.574 70.9073 343 70.4817 343.951 69.3347C344.609 68.5423 344.816 61.2581 344.662 44.2662L344.446 20.3153L338.703 20.0789C335.545 19.9493 332.702 20.1026 332.385 20.4189ZM307.499 31.8363C310.298 34.3301 311.429 38.1682 311.429 45.18C311.429 55.8727 308.643 59.9448 301.254 60.0565C296.287 60.1323 293.857 58.6746 291.774 54.371C290.297 51.3196 290.089 49.7144 290.382 43.6026C290.769 35.4893 292.031 32.7224 296.204 30.836C299.51 29.3416 305.27 29.8512 307.499 31.8363ZM380.376 30.8857C384.795 32.7322 386.722 37.8193 386.269 46.4453C385.757 56.1931 382.568 60.1649 375.341 60.0557C367.621 59.9391 364.934 55.5767 365.365 43.8651C365.589 37.7712 365.969 35.888 367.351 34.0284C370.555 29.7166 375.007 28.643 380.376 30.8857ZM82.3457 49.46C82.3441 53.2069 79.9767 57.4583 76.6407 59.7067C71.1933 63.3786 62.5779 60.7714 62.5779 55.452C62.5779 51.4345 64.9812 49.9003 74.195 48.0358C82.2504 46.4062 82.3474 46.4233 82.3457 49.46ZM221.376 53.9128C228.292 62.1386 227.993 61.3454 224.702 62.7207C220.449 64.4971 214.783 64.2973 212.785 62.3C210.921 60.4356 210.844 59.7817 212.006 55.5979C212.8 52.7397 215.345 50.0715 217.278 50.0715C217.756 50.0715 219.6 51.8006 221.376 53.9128Z" fill="currentColor"/>
</svg>
