<svg width="442" height="66" viewBox="0 0 442 66" fill="none" xmlns="http://www.w3.org/2000/svg">
<path d="M12.8202 10.7712C0.953565 16.1045 -3.57977 32.9045 3.0869 46.2379C7.0869 53.9712 12.9536 57.3045 22.6869 57.3045C31.0869 57.3045 37.2202 54.7712 41.4869 49.3045C45.4869 44.1045 44.5536 40.3712 39.0869 39.8379C35.6202 39.4379 34.0202 40.2379 30.2869 44.1045C25.0869 49.7045 21.6202 50.1045 16.8202 45.8379C9.75356 39.7045 11.4869 20.7712 19.3536 18.7712C24.5536 17.5712 29.3536 19.3045 31.0869 22.9045C32.2869 25.7045 33.4869 26.2379 38.4202 26.2379C43.2202 26.2379 44.1536 25.8379 44.1536 23.7045C44.1536 20.1045 37.7536 12.9045 32.5536 10.7712C27.0869 8.37118 18.0202 8.50452 12.8202 10.7712Z" fill="#D9D9D9"/>
<path d="M64.9707 11.3045C59.2374 13.9712 55.904 18.3712 57.104 21.5712C58.304 24.5045 64.4374 23.7045 68.8374 20.1045C73.6374 16.1045 78.304 15.8379 81.904 19.4379C87.104 24.6379 85.504 26.7712 75.3707 28.3712C63.2374 30.2379 57.2374 33.3045 54.5707 38.7712C52.704 42.7712 52.704 43.8379 54.4374 47.9712C57.104 54.2379 62.1707 57.3045 70.0374 57.3045C74.5707 57.3045 77.7707 56.3712 80.4374 54.3712C84.304 51.5712 84.304 51.5712 84.9707 54.2379C85.6374 56.5045 86.5707 56.9045 90.8374 56.5045L95.904 56.1045L96.304 39.4379C96.5707 25.7045 96.1707 21.9712 94.304 18.1045C89.7707 9.30452 76.4374 6.10452 64.9707 11.3045ZM84.5707 36.7712C84.5707 40.6379 81.104 46.9045 78.5707 47.9712C72.5707 50.2379 64.5707 47.7045 64.5707 43.5712C64.5707 38.9045 70.0374 36.2379 83.6374 34.2379C84.1707 34.2379 84.5707 35.3045 84.5707 36.7712Z" fill="#D9D9D9"/>
<path d="M105.645 33.4379L106.045 56.5045L111.779 56.9045L117.379 57.3045V42.1045C117.379 23.7045 118.179 22.2379 128.179 21.1712L135.379 20.5045L135.779 15.4379L136.179 10.5045H130.712C127.779 10.5045 123.512 11.4379 121.379 12.5045C118.045 14.2379 117.512 14.2379 116.845 12.5045C116.445 11.1712 114.312 10.5045 110.712 10.5045H105.379L105.645 33.4379Z" fill="#D9D9D9"/>
<path d="M154.826 10.3913C149.226 12.7913 146.292 17.3247 146.292 23.3247C146.292 29.7247 151.492 34.258 161.226 36.5247C171.492 38.9247 173.226 40.1247 172.692 44.258C172.292 47.458 171.626 47.858 166.426 48.258C162.026 48.658 159.492 47.9913 156.692 45.858C152.159 42.5247 145.892 42.658 145.226 46.1247C144.559 49.7247 151.092 54.9247 158.559 56.5247C177.892 60.658 193.092 47.5913 182.959 35.458C180.826 32.9247 177.359 30.9247 173.359 29.858C157.092 25.7247 154.692 23.858 159.092 19.058C162.026 15.858 165.892 15.858 171.359 19.1913C176.959 22.658 183.626 22.7913 183.626 19.458C183.626 11.3247 165.626 5.72467 154.826 10.3913Z" fill="#D9D9D9"/>
<path d="M210.006 29.827C198.196 35.9865 192.021 56.3807 207.567 62.4705C217.305 66.285 225.033 60.2661 234.406 60.5465C237.884 60.6506 240.706 63.2072 244.166 63.2518C254.334 63.3828 255.099 53.432 251.486 46.8466C255.921 44.3668 260.934 34.9302 252.476 33.3305C242.318 31.4093 240.79 42.2305 231.966 29.827C234.579 28.715 236.813 27.6314 238.876 25.5927C259.592 5.12567 208.505 -9.68085 207.637 17.6701C207.501 21.9308 208.731 25.8202 210.006 29.827Z" fill="#D9D9D9"/>
<path d="M223.426 22.5329C233.93 14.5364 220.967 10.6543 223.426 22.5329V22.5329Z" fill="white"/>
<path d="M217.326 39.5525C211.987 47.0664 216.309 51.1592 224.646 49.2779L217.326 39.5525Z" fill="white"/>
<path d="M269.194 32.9658V65.0991H274.528C279.061 65.0991 279.861 64.6991 279.861 62.4325C279.861 59.7658 279.861 59.7658 283.861 62.6991C289.194 66.5658 299.728 66.6991 304.928 62.8325C311.194 58.1658 313.594 52.4325 313.728 41.8991C313.728 34.8325 313.061 31.0991 311.061 27.2325C306.261 17.8991 294.394 14.2991 285.594 19.7658L281.328 22.2991L280.928 12.0325L280.528 1.7658L274.928 1.3658L269.194 0.965801V32.9658ZM297.861 29.7658C300.661 32.4325 301.194 34.2991 301.194 41.3658C301.194 52.4325 298.928 55.7658 291.728 55.7658C283.728 55.7658 281.194 52.4325 281.194 41.7658C281.194 34.1658 281.594 32.5658 284.528 29.7658C286.261 27.8991 289.328 26.4325 291.194 26.4325C293.061 26.4325 296.128 27.8991 297.861 29.7658Z" fill="#D9D9D9"/>
<path d="M323.133 2.2C322.733 3.26666 322.6 5.53333 322.866 7.26667C323.266 9.93333 324.066 10.3333 329.266 10.3333C335.266 10.3333 335.266 10.3333 335.666 5.26666L336.066 0.333331H329.933C325.933 0.333331 323.666 0.999998 323.133 2.2Z" fill="#D9D9D9"/>
<path d="M323.933 42.2V65.6667H329.266C336.066 65.6667 336.2 65.2667 335.666 39.6667L335.266 19.6667L329.666 19.2667L323.933 18.8667V42.2Z" fill="#D9D9D9"/>
<path d="M378.537 2.03247C378.004 2.43247 377.604 7.3658 377.604 12.8325C377.604 22.6991 377.604 22.8325 374.937 20.4325C370.937 16.8325 360.67 16.2991 355.07 19.4991C348.137 23.2325 344.937 30.4325 345.07 41.8991C345.204 52.4325 347.604 58.1658 353.87 62.8325C359.07 66.6991 369.604 66.5658 374.937 62.6991C378.937 59.7658 378.937 59.7658 378.937 62.4325C378.937 64.6991 379.737 65.0991 384.27 65.0991H389.604V33.0991V1.09913H384.537C381.737 1.09913 378.937 1.49913 378.537 2.03247ZM374.27 29.7658C377.07 32.4325 377.604 34.2991 377.604 41.3658C377.604 52.4325 375.337 55.7658 368.137 55.7658C360.137 55.7658 357.604 52.4325 357.604 41.7658C357.604 34.1658 358.004 32.5658 360.937 29.7658C362.67 27.8991 365.737 26.4325 367.604 26.4325C369.47 26.4325 372.537 27.8991 374.27 29.7658Z" fill="#D9D9D9"/>
<path d="M408.842 19.4C393.775 25.8 397.242 41.6667 414.575 45.2667C418.708 46.0667 423.375 47.8 424.975 49.1333C427.375 51.1333 427.642 51.9333 426.308 54.3333C424.175 58.2 414.975 58.3333 410.175 54.6C403.242 49.2667 394.975 52.7333 400.308 58.7333C404.708 63.5333 410.442 65.6667 418.842 65.6667C436.042 65.6667 445.108 54.2 435.908 43.9333C433.108 40.7333 429.908 39.2667 422.975 37.5333C412.975 35.1333 409.775 32.3333 412.308 28.2C414.308 25.2667 422.575 25.4 426.042 28.4667C428.575 30.7333 436.175 31.4 437.375 29.4C438.575 27.5333 432.708 21.1333 428.042 19.1333C422.308 16.7333 414.708 16.8667 408.842 19.4Z" fill="#D9D9D9"/>
</svg>
