<svg width="442" height="151" viewBox="0 0 442 151" fill="none" xmlns="http://www.w3.org/2000/svg">
<path d="M115.433 1.44909C112.375 2.21371 108.404 3.17565 106.628 3.59496L103.347 4.31024V5.56817V6.85076L105.148 7.02341C107.466 7.2454 108.848 7.86203 109.44 8.92263C109.834 9.66258 109.884 10.5505 109.958 17.9254L110.032 26.1389L108.132 25.2756C104.507 23.6231 103.101 23.3024 99.4009 23.3024C96.5891 23.3024 95.7751 23.4011 94.2212 23.8697C85.9831 26.4596 80.4087 33.4398 78.1395 43.9718C77.3996 47.4249 77.3503 54.8738 78.0409 57.8336C79.3481 63.5806 82.6533 68.4643 86.9943 71.1035C87.7836 71.5968 89.5102 72.3368 90.7928 72.7807C92.7906 73.4467 93.5553 73.57 96.3178 73.6687C99.0063 73.792 99.8695 73.718 101.695 73.274C104.112 72.7067 106.776 71.5475 108.724 70.2156L110.007 69.3276V71.1528C110.007 73.3234 110.13 73.7427 110.846 73.7427C111.142 73.7427 114.545 73.0274 118.418 72.1641C122.266 71.2762 126.138 70.4375 127.026 70.2402L128.629 69.9196L128.703 68.6617L128.777 67.4037L126.829 67.1571C124.559 66.8611 123.745 66.3925 123.005 65.0112L122.463 63.9999L122.34 32.0586C122.266 14.497 122.192 0.0925021 122.142 0.0431718C121.97 -0.129484 120.416 0.191163 115.433 1.44909ZM104.433 27.8901C106.159 28.5314 107.861 30.1593 108.675 31.9106C109.933 34.6731 110.007 35.5363 110.007 50.6068V64.5919L109.193 65.2085C107.096 66.8118 103.545 67.5764 100.683 67.0831C98.291 66.6638 96.6384 65.7512 94.8379 63.8519C91.5081 60.3002 89.7815 54.6272 89.7815 47.129C89.7815 37.3122 92.9633 29.814 97.995 27.8901C99.7709 27.1995 102.632 27.1995 104.433 27.8901Z" fill="#D9D9D9"/>
<path d="M180.352 4.23625L180.426 5.54351L182.473 5.71616C186.864 6.08614 188.245 7.17141 188.911 10.7232C189.281 12.7457 189.281 62.7173 188.911 64.7399C188.27 68.1683 186.888 69.3029 182.843 69.7223L181.289 69.8702V68.637V67.4037L179.538 67.2804C177.516 67.1324 176.726 66.6638 175.986 65.2085C175.518 64.2713 175.493 63.6793 175.419 44.3171L175.345 24.4124H166.244H157.117V25.7443V27.0515L158.721 27.1995C160.743 27.3968 161.952 27.9641 162.494 28.9507C162.864 29.6414 162.914 31.2199 162.988 46.241L163.062 62.7913L161.138 63.9259C158.696 65.4059 157.167 66.0471 155.144 66.4911C152.012 67.1571 149.2 66.7378 147.942 65.4305C146.931 64.3946 146.265 62.6187 146.018 60.3742C145.87 59.2396 145.771 50.7054 145.771 41.3573V24.4124H136.645H127.519V25.7443V27.0515L129.147 27.1995C131.318 27.4215 132.452 27.9888 133.069 29.2221C133.538 30.1593 133.562 30.85 133.71 46.611C133.858 64.8386 133.809 64.2466 135.585 67.6504C137.706 71.6708 141.948 73.7427 148.09 73.7427C152.16 73.7427 156.057 72.3368 160.719 69.1796L163.037 67.6011V70.2896C163.037 73.3727 163.136 73.7427 163.9 73.7427C164.418 73.7427 178.749 70.7335 179.883 70.3882C180.229 70.2649 180.303 70.4129 180.303 71.3748V72.5094H196.483H212.639L212.565 71.2022L212.491 69.9196L210.345 69.7469C207.237 69.5249 205.708 69.007 204.672 67.8724C203.192 66.2445 203.118 65.5292 203.118 53.8872V43.5279L211.011 43.3799C219.348 43.2072 221.099 43.0099 225.292 41.8013C232.494 39.7048 237.23 35.265 238.907 28.9754C239.45 26.9282 239.647 21.6745 239.252 19.282C237.92 10.9452 232.543 5.91349 222.554 3.64429C220.186 3.12632 219.742 3.10166 200.207 3.02766L180.278 2.929L180.352 4.23625ZM214.538 7.78804C220.038 9.39127 223.615 12.9924 224.848 18.1474C225.341 20.1946 225.193 24.9303 224.601 27.2488C222.579 34.8457 216.116 38.9155 205.461 39.2608L203.118 39.3348V24.4124C203.118 7.83737 203.044 8.62665 204.746 7.76337C206.719 6.72744 210.937 6.7521 214.538 7.78804Z" fill="#D9D9D9"/>
<path d="M350.27 9.6626C348.889 16.3469 345.066 22.0198 340.404 24.363C339.294 24.9303 337.716 25.5223 336.902 25.695L335.447 25.9909V27.7915V29.5921H338.53H341.613V47.0303C341.613 61.4841 341.687 64.7892 341.983 66.2198C342.723 69.6483 344.227 71.6708 346.99 72.9534C348.1 73.4467 348.889 73.5947 350.862 73.6934C353.871 73.8167 355.598 73.496 357.966 72.3368C360.087 71.2762 363.121 68.341 365.39 65.1592L366.845 63.0873L365.834 62.1007L364.823 61.0895L362.899 62.7667C360.827 64.5919 358.977 65.6032 357.694 65.6032C356.313 65.6032 355.253 65.0112 354.636 63.8273L354.069 62.7667L353.995 46.167L353.921 29.5921H359.495H365.045V27.0022V24.4124H359.495H353.945V16.2729V8.13336H352.268H350.591L350.27 9.6626Z" fill="#D9D9D9"/>
<path d="M256.962 23.5491C249.118 25.029 242.952 30.2827 240.091 37.9289C239.647 39.1128 239.104 40.9134 238.882 41.9246C238.34 44.4651 238.142 49.9161 238.488 52.6046C239.943 63.482 246.701 71.2762 256.469 73.2987C259.527 73.94 264.805 73.8167 267.494 73.0767C276.472 70.5362 282.416 63.6546 284.168 53.7639C284.587 51.3714 284.587 45.5257 284.168 43.1579C282.416 33.3412 276.225 26.1883 267.494 23.8944C264.879 23.2284 259.65 23.0311 256.962 23.5491ZM264.707 27.8655C267.075 28.7534 269.221 31.4666 270.182 34.7964C271.095 37.9289 271.366 40.3214 271.49 46.6357C271.712 57.661 270.676 63.3587 267.741 66.9598C265.57 69.6236 260.834 70.4869 257.381 68.8097C254.347 67.3544 252.399 63.3093 251.56 56.8224C251.141 53.6406 251.141 43.2812 251.56 40.1981C252.547 32.7739 254.594 29.0987 258.467 27.7175C259.872 27.1995 263.178 27.2982 264.707 27.8655Z" fill="#D9D9D9"/>
<path d="M292.036 25.0043L283.773 26.8049L283.699 28.1614L283.625 29.518L285.179 29.6414C287.325 29.814 288.262 30.3566 288.903 31.7626C289.446 32.9218 289.446 33.0205 289.446 49.9408C289.446 66.6144 289.446 66.9844 288.953 67.823C288.262 68.9823 287.201 69.5249 285.278 69.7222L283.65 69.8702V71.1775V72.5094H295.76H307.846L307.772 71.2021L307.698 69.9196L306.021 69.7222C304.072 69.5249 303.061 69.0563 302.469 68.1437C302.05 67.527 302.025 66.2198 301.951 50.8041L301.877 34.1304L303.85 32.9465C304.936 32.3052 306.786 31.4172 307.994 30.9979C309.819 30.3566 310.535 30.2333 312.508 30.2333C314.481 30.2333 315.024 30.3073 315.912 30.776C317.194 31.4666 318.304 33.0945 318.674 34.8704C318.847 35.7336 318.921 41.3573 318.872 51.8153C318.798 66.2691 318.773 67.527 318.354 68.1437C317.762 69.0563 316.75 69.5249 314.802 69.7222L313.125 69.9196L313.051 71.2021L312.977 72.5094H325.062H337.173V71.1775V69.8702L335.545 69.7222C333.621 69.5249 332.561 68.9823 331.87 67.823C331.401 66.9844 331.377 66.4911 331.229 50.5574C331.105 34.4264 331.081 34.1304 330.538 32.3052C329.798 29.814 328.91 28.2601 327.406 26.7309C325.186 24.511 322.325 23.4751 317.811 23.2531C315.542 23.1298 314.728 23.2037 313.001 23.6477C310.461 24.2643 306.687 26.0649 303.949 27.9395L301.902 29.3207V26.7309C301.902 23.8944 301.68 23.1791 300.841 23.2037C300.545 23.2037 296.574 24.0177 292.036 25.0043Z" fill="#D9D9D9"/>
<path d="M147.375 85.7053C140.641 86.8892 135.067 89.701 130.38 94.2148C123.178 101.195 119.552 110.765 120.366 120.705C120.49 122.407 120.786 124.652 121.008 125.712C123.351 137.107 130.43 145.025 141.554 148.7C152.678 152.375 168.488 151.339 178.601 146.308L180.919 145.148L181.043 134.049C181.166 122.185 181.191 122.136 182.473 120.779C183.139 120.064 185.038 119.373 186.321 119.373C187.924 119.373 188.196 119.176 188.196 117.992V116.907H174.013H159.831V118.017C159.831 119.25 159.732 119.201 162.963 119.472C165.775 119.719 167.353 120.754 167.995 122.777C168.414 124.109 168.611 140.067 168.217 141.942C167.649 144.729 165.405 146.012 160.201 146.53C149.767 147.59 141.998 143.619 137.533 134.912C132.502 125.12 132.452 111.406 137.41 101.565C138.89 98.6298 140.172 96.8046 142.195 94.8067C144.267 92.7595 146.585 91.3043 149.348 90.3423C151.173 89.7257 151.617 89.6764 155.021 89.6517C158.129 89.6517 159.017 89.7504 160.669 90.219C166.786 91.9702 171.226 96.04 174.58 102.897L176.233 106.276L177.54 106.301H178.823V105.487C178.823 104.426 177.885 88.8378 177.688 86.8645L177.54 85.3353H175.986H174.432L173.816 86.3959C172.977 87.8018 172.04 88.7144 171.251 88.8624C170.831 88.9364 168.858 88.4924 166.244 87.7525C159.115 85.7299 158.203 85.5573 153.541 85.4586C150.63 85.3846 148.731 85.4586 147.375 85.7053Z" fill="#D9D9D9"/>
<path d="M233.579 85.8286C227.512 87.4812 222.776 91.6249 220.951 96.8786C220.137 99.2711 220.137 103.514 220.975 105.807C221.74 107.929 223.343 110.37 225.119 112.146C227.783 114.81 230.028 116.315 240.806 122.678C250.13 128.203 253.188 132.15 252.522 137.749C251.955 142.632 248.773 145.839 243.766 146.554C238.389 147.344 232.025 144.433 227.487 139.13C225.465 136.762 223.639 133.827 222.776 131.533L222.11 129.733H220.951H219.767V139.969V150.205H221.321H222.875L223.343 149.169C224.478 146.752 226.106 146.579 230.866 148.33C232.568 148.971 234.788 149.687 235.799 149.958C240.264 151.093 246.381 151.216 250.204 150.229C256.839 148.503 261.772 143.718 263.276 137.601C263.77 135.578 263.794 131.434 263.301 129.116C263.104 128.179 262.536 126.575 262.068 125.564C259.428 120.015 255.507 116.709 244.432 110.74C237.92 107.213 235.923 105.931 234.048 104.056C232.272 102.28 231.532 100.751 231.409 98.6298C231.187 94.7327 233.16 91.6002 236.786 90.1697C238.241 89.5777 241.768 89.3804 243.741 89.775C249.242 90.8356 253.928 94.8807 256.765 100.973C257.283 102.058 257.85 103.44 258.023 104.007C258.319 105.067 258.319 105.067 259.527 105.067H260.711V95.2014V85.3353H259.552C258.393 85.36 258.368 85.3846 257.825 86.5439C256.715 88.8624 255.087 89.0597 250.228 87.4318C245.369 85.8039 243.939 85.5573 239.499 85.434C235.972 85.3353 235.183 85.4093 233.579 85.8286Z" fill="#D9D9D9"/>
<path d="M0.000322157 87.9251C0.000322157 89.1584 -0.0983385 89.109 3.15746 89.3804C6.19128 89.6517 7.89317 90.9096 8.38648 93.3021C8.55913 94.1901 8.63313 101.96 8.5838 118.88L8.5098 143.175L7.89317 144.26C7.54786 144.852 7.00523 145.568 6.65991 145.814C5.91996 146.357 3.0588 146.998 1.30758 146.998H0.000322157V148.231V149.465H15.0461H30.0918V148.256V147.072L27.9459 146.924C24.1968 146.653 22.7416 145.962 21.8783 144.088C21.3603 142.953 21.3357 142.608 21.2617 132.372L21.1877 121.84H23.2349H25.2821L36.0115 135.652L46.7408 149.465L81.6173 149.415L116.519 149.341L118.566 141.202C119.676 136.713 120.613 132.988 120.613 132.865C120.613 132.766 120.07 132.692 119.404 132.692C118.418 132.692 118.146 132.791 118.023 133.161C117.776 134 115.236 137.847 114.052 139.253C111.536 142.188 108.083 144.137 103.594 145.099C101.571 145.543 100.363 145.617 94.9612 145.617C86.4024 145.642 84.3798 145.198 83.3192 143.052C82.9246 142.262 82.8753 141.153 82.8753 130.645V119.127H90.1021C97.921 119.127 99.5982 119.324 101.769 120.434C104.038 121.593 105.666 123.912 106.332 126.945L106.628 128.253H107.836H109.02V117.153V106.054H107.812H106.628L106.356 107.411C105.962 109.359 104.926 111.357 103.89 112.22C101.744 113.996 98.7596 114.44 89.2882 114.44H82.8753V103.834C82.8753 92.5868 82.9246 92.1182 84.0345 91.6002C84.7498 91.2796 95.9724 91.1809 99.8942 91.4769C105.321 91.8962 107.688 92.6855 109.662 94.7574C110.698 95.818 111.881 97.9392 112.473 99.7151L112.769 100.652L114.003 100.578L115.261 100.504L115.211 96.8046C115.211 94.7574 115.113 91.6989 115.039 89.9477L114.866 86.8152H88.7702H62.6498V87.9251C62.6498 89.1584 62.6005 89.1337 65.2397 89.405C67.4102 89.6023 68.7914 90.3916 69.5561 91.8715L70.1727 93.0801L70.2467 117.252C70.296 133.95 70.222 141.818 70.0494 142.706C69.4574 145.494 67.8788 146.678 64.3024 146.924C61.5892 147.122 60.4053 146.702 58.6294 144.926C57.4208 143.767 39.0946 120.606 39.2673 120.508C39.3166 120.483 39.8346 120.31 40.4512 120.138C46.0502 118.535 50.5639 115.402 52.5124 111.727C53.9924 108.964 54.313 107.707 54.4363 104.081C54.535 101.565 54.461 100.356 54.165 99.0738C52.5618 92.2908 46.6175 88.4677 35.6415 87.1852C33.0763 86.8892 29.1545 86.8152 16.23 86.8152H0.000322157V87.9251ZM31.2264 91.0083C33.9889 91.6989 36.0361 92.7841 37.886 94.5107C41.1171 97.5445 42.4491 102.453 41.3145 107.238C39.7606 113.873 34.1616 117.227 23.3829 118.041L21.2124 118.189V105.635C21.2124 96.8786 21.2864 92.8088 21.4837 92.2415C21.7057 91.6742 22.051 91.3289 22.7909 90.9836C24.2462 90.3176 28.5626 90.3423 31.2264 91.0083Z" fill="#D9D9D9"/>
<path d="M187.209 87.9251C187.209 89.1584 187.135 89.109 190.415 89.3804C192.635 89.5777 193.745 89.923 194.732 90.8109C196.409 92.2662 196.36 91.3042 196.286 118.658C196.212 142.608 196.212 143.2 195.718 144.162C194.806 145.962 193.227 146.653 189.503 146.924L187.209 147.072V148.281V149.465H202.773H218.312L218.238 148.305L218.164 147.122L215.944 146.949C212.935 146.678 211.43 146.209 210.493 145.222C208.988 143.619 209.038 144.828 208.964 119.127C208.89 94.6094 208.939 93.1295 209.925 91.5262C210.567 90.4903 212.491 89.6023 214.563 89.405C215.45 89.331 216.659 89.2077 217.251 89.1337L218.287 89.0104V87.9004V86.8152H202.748H187.209V87.9251Z" fill="#D9D9D9"/>
<path d="M265.866 87.4811C265.866 87.8511 265.57 91.4276 265.175 95.4233C264.657 100.899 264.583 102.675 264.805 102.774C264.953 102.823 265.57 102.848 266.137 102.798L267.198 102.724L268.037 100.159C268.999 97.1252 269.911 95.448 271.366 94.0421C273.611 91.8715 276.053 91.2796 282.984 91.2549H287.103V116.734C287.103 144.532 287.127 143.816 285.697 145.321C284.858 146.184 283.132 146.727 280.394 146.949L278.347 147.122L278.273 148.281L278.199 149.465H293.368H308.561V148.256V147.072L306.391 146.924C303.776 146.727 302.297 146.258 301.261 145.247C299.756 143.792 299.805 144.581 299.805 116.783V91.3782L303.752 91.3042C305.922 91.2549 308.635 91.3536 309.795 91.5016C314.999 92.1675 317.712 95.078 319.414 101.787L319.685 102.848H321.017C322.226 102.848 322.374 102.798 322.374 102.354C322.374 102.058 322.152 99.3698 321.881 96.3606C321.609 93.3515 321.338 90.515 321.313 90.0463L321.264 89.2077L322.818 89.257C324.643 89.331 326.814 89.849 327.702 90.4163C328.047 90.6629 328.565 91.2796 328.861 91.8469L329.404 92.8581L329.478 117.597C329.527 134.468 329.453 142.657 329.28 143.323C328.664 145.568 326.937 146.604 323.114 146.924L321.017 147.122L320.943 148.281L320.869 149.465H335.915H350.986V148.256V147.072L348.815 146.924C345.189 146.653 343.759 145.913 342.747 143.792C342.254 142.731 342.229 142.262 342.155 132.248L342.057 121.84H344.153H346.25L356.954 135.628L367.635 149.44H376.465L385.27 149.465V148.231V146.998H384.259C382.532 146.998 381.324 146.48 379.819 145.074C378.561 143.915 360.778 121.568 360.457 120.779C360.383 120.557 360.95 120.261 362.258 119.866C364.773 119.102 368.029 117.449 369.78 116.043C372.395 113.996 374.171 111.234 375.059 107.781C375.601 105.807 375.651 101.072 375.182 99.1478C373.677 92.9568 368.744 89.331 359.248 87.4811C356.56 86.9632 356.313 86.9632 311.225 86.8892L265.891 86.7905L265.866 87.4811ZM351.799 90.9096C355.524 91.7236 359.051 94.0174 360.753 96.7306C363.022 100.332 363.219 106.325 361.172 110.346C358.928 114.761 352.49 117.696 344.449 117.943L342.229 118.017V105.265C342.229 92.7102 342.229 92.5128 342.747 91.8222C343.019 91.4522 343.635 91.0083 344.104 90.8356C345.337 90.4163 349.728 90.441 351.799 90.9096Z" fill="#D9D9D9"/>
<path d="M377.673 87.9498L377.747 89.0844L379.153 89.5283C381.151 90.145 382.606 91.0576 383.716 92.4142C384.259 93.0801 388.945 99.6164 394.125 106.967L403.547 120.36L403.473 131.632C403.399 142.632 403.374 142.953 402.856 144.088C401.993 145.962 400.538 146.653 396.813 146.924L394.643 147.072V148.256V149.465H409.812H424.981V148.256V147.072L422.835 146.924C419.086 146.653 417.631 145.962 416.768 144.088C416.25 142.953 416.225 142.632 416.151 131.656L416.077 120.36L424.389 108.595C433.885 95.152 435.069 93.5488 436.746 91.9455C437.98 90.7369 439.928 89.627 441.235 89.3804C441.975 89.2324 442 89.1584 442 88.0238V86.8152H431.394H420.788V87.9004V89.0104L421.849 89.1337C422.416 89.2077 423.575 89.331 424.414 89.405C426.486 89.6023 427.694 90.0463 428.286 90.8356C428.73 91.4522 428.755 91.6249 428.483 92.9321C428.335 93.6968 427.867 95.004 427.472 95.818C426.782 97.2239 414.548 114.761 414.178 114.859C414.03 114.909 402.412 97.7172 400.39 94.412C399.551 93.0801 399.354 91.8715 399.847 90.9589C400.193 90.293 401.87 89.6023 403.522 89.405C404.262 89.331 405.348 89.2077 405.94 89.1337L406.975 89.0104V87.9004V86.8152H392.275H377.599L377.673 87.9498Z" fill="#D9D9D9"/>
</svg>
