<svg width="440" height="177" viewBox="0 0 440 177" fill="none" xmlns="http://www.w3.org/2000/svg">
<path d="M56.8575 39.1548C25.8437 39.1548 0 52.2771 0 91.8666C0 123.23 17.378 142.981 57.6583 142.981C105.07 142.981 108.109 111.833 108.109 111.833H85.136C85.136 111.833 80.2104 128.605 56.2569 128.605C36.7474 128.605 22.7154 115.461 22.7154 97.038H110.512V85.4773C110.512 67.251 98.9102 39.1548 56.8575 39.1548V39.1548ZM56.0567 53.9301C74.6277 53.9301 87.2882 65.2766 87.2882 82.2826H23.2235C23.2235 64.2286 39.7487 53.9301 56.0567 53.9301V53.9301Z" fill="currentColor"/>
<path d="M110.495 0.825439V123.106C110.495 130.047 109.999 139.793 109.999 139.793H131.91C131.91 139.793 132.697 132.793 132.697 126.396C132.697 126.396 143.523 143.287 172.959 143.287C203.956 143.287 225.011 121.824 225.011 91.0744C225.011 62.4683 205.671 39.4608 173.009 39.4608C142.422 39.4608 132.918 55.9332 132.918 55.9332V0.825439H110.495ZM167.353 54.5855C188.402 54.5855 201.788 70.1661 201.788 91.0744C201.788 113.495 186.328 128.162 167.503 128.162C145.037 128.162 132.918 110.668 132.918 91.2741C132.918 73.2029 143.793 54.5855 167.353 54.5855Z" fill="currentColor"/>
<path d="M279.466 39.1548C232.808 39.1548 229.816 64.6339 229.816 68.7053H253.04C253.04 68.7053 254.257 53.8302 277.865 53.8302C293.205 53.8302 305.092 60.8329 305.092 74.296V79.088H277.865C241.718 79.088 222.609 89.6339 222.609 111.035C222.609 132.096 240.265 143.555 264.126 143.555C296.644 143.555 307.119 125.635 307.119 125.635C307.119 132.763 307.67 139.786 307.67 139.786H328.316C328.316 139.786 327.515 131.08 327.515 125.51V77.3658C327.515 45.7982 301.984 39.1548 279.466 39.1548V39.1548ZM305.092 93.4639V99.8532C305.092 108.187 299.936 128.905 269.581 128.905C252.959 128.905 245.832 120.631 245.832 111.035C245.832 93.5763 269.832 93.4639 305.092 93.4639V93.4639Z" fill="currentColor"/>
<path d="M315.009 43.1658H341.136L378.631 118.083L416.04 43.1658H439.707L371.566 176.543H346.741L366.404 139.362L315.009 43.1658Z" fill="currentColor"/>
</svg>
