<svg width="440" height="177" viewBox="0 0 440 177" fill="none" xmlns="http://www.w3.org/2000/svg">
<g clip-path="url(#clip0_223_2)">
<path d="M57.0041 39.3777C25.9904 39.3777 0.146667 52.4998 0.146667 92.0887C0.146667 123.452 17.5247 143.202 57.8049 143.202C105.217 143.202 108.256 112.055 108.256 112.055H85.2827C85.2827 112.055 80.3571 128.827 56.4035 128.827C36.894 128.827 22.862 115.683 22.862 97.2601H110.658V85.6995C110.658 67.4735 99.0569 39.3777 57.0041 39.3777V39.3777ZM56.2033 54.1528C74.7743 54.1528 87.4349 65.4991 87.4349 82.5049H23.3701C23.3701 64.4512 39.8954 54.1528 56.2033 54.1528V54.1528Z" fill="#D9D9D9"/>
<path d="M110.642 1.04239V123.321C110.642 130.262 110.145 140.008 110.145 140.008H132.057C132.057 140.008 132.843 133.008 132.843 126.611C132.843 126.611 143.669 143.502 173.105 143.502C204.102 143.502 225.158 122.04 225.158 91.2901C225.158 62.6843 205.818 39.6772 173.155 39.6772C142.569 39.6772 133.065 56.1494 133.065 56.1494V1.04239H110.642ZM167.5 54.8017C188.549 54.8017 201.934 70.382 201.934 91.2901C201.934 113.71 186.475 128.377 167.65 128.377C145.183 128.377 133.065 110.883 133.065 91.4897C133.065 73.4188 143.939 54.8017 167.5 54.8017Z" fill="#D9D9D9"/>
<path d="M279.613 39.3777C232.955 39.3777 229.963 64.8564 229.963 68.9278H253.186C253.186 68.9278 254.404 54.0529 278.011 54.0529C293.352 54.0529 305.239 61.0555 305.239 74.5184V79.3103H278.011C241.865 79.3103 222.755 89.8561 222.755 111.256C222.755 132.317 240.412 143.776 264.272 143.776C296.79 143.776 307.266 125.857 307.266 125.857C307.266 132.984 307.817 140.008 307.817 140.008H328.462C328.462 140.008 327.661 131.302 327.661 125.732V77.5882C327.661 46.021 302.13 39.3777 279.613 39.3777V39.3777ZM305.239 93.686V100.075C305.239 108.409 300.083 129.126 269.728 129.126C253.106 129.126 245.979 120.853 245.979 111.256C245.979 93.7985 269.979 93.686 305.239 93.686V93.686Z" fill="#D9D9D9"/>
<path d="M315.156 43.375H341.282L378.777 118.291L416.187 43.375H439.853L371.713 176.75H346.888L366.551 139.57L315.156 43.375Z" fill="#D9D9D9"/>
</g>
<defs>
<clipPath id="clip0_223_2">
<rect width="440" height="176" fill="white" transform="translate(0 0.895996)"/>
</clipPath>
</defs>
</svg>
