<svg width="442" height="85" viewBox="0 0 442 85" fill="none" xmlns="http://www.w3.org/2000/svg">
<path fill-rule="evenodd" clip-rule="evenodd" d="M440.678 1.26463L420.909 52.2422V82.0719H397.422V52.2422L379.051 9.37775H364.063V82.0719H339.14V9.37775H319.138V1.26463H399.969L416.457 40.2202L431.295 1.26463H440.678ZM288.596 39.4776H283.855V11.6521H288.596C297.498 11.6521 301.943 16.2907 301.943 25.5669C301.943 34.8389 297.498 39.4776 288.596 39.4776ZM321.218 24.8996C321.385 18.511 318.667 11.1479 313.97 6.9795C309.906 3.37368 304.253 1.26463 295.182 1.26463H260.351V82.0719H283.855V48.224L301.833 82.0719H327.346L306.726 45.1162C318.271 38.4744 321.009 32.6589 321.218 24.8996ZM226.381 71.9642H257.539V82.1946H202.876V1.3875H255.388V11.6224H226.381V36.0719H250.76V46.3058H226.381V71.9642ZM168.2 36.4395H198.633V78.0295C198.633 78.0295 197.281 78.2596 194.863 79.0751C192.357 79.9184 192.056 80.0328 189.024 80.825C189.024 80.825 178.095 83.561 170.81 83.561C158.821 83.561 149.515 79.9724 142.888 72.8136C136.268 65.6442 132.955 55.5524 132.955 42.5315C132.955 29.8624 136.464 19.6073 143.49 11.7728C150.499 3.94358 159.699 0.383292 171.047 0.0241915C184.651 -0.400585 197.508 4.65224 197.928 24.425L187.368 24.5638L187.065 20.8181C185.625 12.5228 181.805 8.02081 173.749 8.32797C167.295 8.5727 163.762 10.7294 161.734 14.8829C159.314 19.8277 158.467 29.3454 158.467 43.1205C158.467 55.9898 159.348 64.7311 161.114 69.3505C162.868 73.9736 166.217 76.2786 171.167 76.2786C176.983 76.2786 179.891 73.0331 179.891 66.5638V46.6702H168.2V36.4395ZM85.3367 56.564L96.1504 20.744L106.147 56.564H85.3367ZM89.8223 1.3875L66.1678 77.5306V1.3875H42.6715V36.0095H23.5006V1.3875H0V82.1946H23.5006V46.2497H42.6715V82.1946H77.5104L82.9233 64.673H108.46L113.481 82.1946H138.215L114.603 1.3875H89.8223Z" fill="#D9D9D9"/>
</svg>
