<svg width="440" height="84" viewBox="0 0 440 84" fill="none" xmlns="http://www.w3.org/2000/svg">
<path fill-rule="evenodd" clip-rule="evenodd" d="M439.707 1.53011L419.981 52.5071V82.3364H396.545V52.5071L378.215 9.64314H363.26V82.3364H338.392V9.64314H318.434V1.53011H399.087L415.539 40.4852L430.344 1.53011H439.707ZM287.959 39.7426H283.229V11.9174H287.959C296.842 11.9174 301.277 16.556 301.277 25.8321C301.277 35.104 296.842 39.7426 287.959 39.7426ZM320.509 25.1648C320.677 18.7763 317.965 11.4132 313.278 7.24491C309.222 3.63914 303.582 1.53011 294.531 1.53011H259.777V82.3364H283.229V48.4889L301.168 82.3364H326.624L306.049 45.3812C317.569 38.7395 320.301 32.924 320.509 25.1648ZM225.882 72.2289H256.972V82.4591H202.429V1.65299H254.825V11.8878H225.882V36.337H250.207V46.5708H225.882V72.2289ZM167.83 36.7046H198.195V78.2941C198.195 78.2941 196.846 78.5242 194.433 79.3396C191.933 80.183 191.632 80.2973 188.608 81.0895C188.608 81.0895 177.702 83.8255 170.433 83.8255C158.471 83.8255 149.185 80.2369 142.573 73.0783C135.968 65.9089 132.661 55.8172 132.661 42.7965C132.661 30.1275 136.163 19.8726 143.174 12.0382C150.167 4.20903 159.347 0.648791 170.669 0.289694C184.243 -0.135077 197.072 4.91769 197.492 24.6902L186.955 24.829L186.653 21.0834C185.215 12.7881 181.404 8.28621 173.366 8.59338C166.927 8.8381 163.401 10.9948 161.378 15.1482C158.963 20.0929 158.118 29.6106 158.118 43.3855C158.118 56.2547 158.996 64.9959 160.759 69.6152C162.509 74.2382 165.85 76.5432 170.789 76.5432C176.593 76.5432 179.494 73.2977 179.494 66.8285V46.9352H167.83V36.7046ZM85.1485 56.8288L95.9384 21.0092L105.913 56.8288H85.1485ZM89.6242 1.65299L66.0219 77.7952V1.65299H42.5774V36.2745H23.4488V1.65299H0V82.4591H23.4488V46.5146H42.5774V82.4591H77.3395L82.7405 64.9377H108.221L113.231 82.4591H137.91L114.351 1.65299H89.6242Z" fill="currentColor"/>
</svg>
