<svg width="440" height="54" viewBox="0 0 440 54" fill="none" xmlns="http://www.w3.org/2000/svg">
<path d="M36.8009 12.8431C38.0228 6.82542 38.991 1.62621 38.9522 1.28899L38.882 0.675822L30.2287 0.618706C23.3106 0.572971 21.4956 0.619799 21.1779 0.85198C20.8638 1.08153 20.3275 3.41165 18.6206 11.9601C17.4325 17.9099 16.4091 22.9925 16.3465 23.2549C16.0692 24.4129 16.0318 24.419 9.23249 24.419C5.76073 24.419 2.76143 24.4799 2.56776 24.5543C1.99114 24.7755 1.85284 25.2311 0.814704 30.3288C0.0663008 34.0047 -0.118174 35.2801 0.0665199 35.5029C0.262155 35.7385 1.60534 35.7983 6.71375 35.7983C12.1828 35.7983 13.1559 35.8469 13.3925 36.1318C13.6198 36.4058 13.3671 37.9772 11.9817 44.9063C11.0534 49.5486 10.3468 53.4851 10.4118 53.6541C10.51 53.9105 11.9541 53.9613 19.1624 53.9613C23.9104 53.9613 27.9461 53.9033 28.1308 53.8326C28.6089 53.649 28.7208 53.1978 30.4565 44.4421C31.7465 37.9356 32.0969 36.4968 32.4702 36.1775C32.8797 35.8269 33.4226 35.7963 38.2854 35.8493C43.0413 35.9011 43.6753 35.9495 43.8818 36.2771C44.0576 36.5561 43.7035 38.6849 42.4347 44.9745C41.511 49.5551 40.8118 53.451 40.8814 53.6319C40.9909 53.9175 42.1765 53.9613 49.8203 53.9613C56.9244 53.9613 58.6799 53.9044 58.8764 53.6676C59.0103 53.5061 61.4849 41.6262 64.3752 27.2676C68.3741 7.40161 69.5711 1.09007 69.3834 0.863797C69.0223 0.42876 52.1985 0.438608 51.6245 0.874301C51.3247 1.10167 50.7256 3.72349 48.9773 12.4571C47.7346 18.666 46.5921 23.8976 46.4384 24.0825C46.0332 24.5709 35.2467 24.5884 34.8426 24.1015C34.6327 23.8488 35.0321 21.553 36.8009 12.8431Z" fill="currentColor"/>
<path d="M113.356 11.5627C113.95 11.0554 115.946 1.33319 115.554 0.860297C115.353 0.618488 112.017 0.566406 96.7701 0.566406C79.3877 0.566406 78.2088 0.590259 77.8915 0.949361C77.4683 1.42795 67.064 53.0216 67.2782 53.5783C67.4172 53.939 68.5487 53.9613 86.7654 53.9613C104.908 53.9613 106.126 53.9377 106.445 53.5783C106.902 53.0639 108.793 43.611 108.532 43.1447C108.361 42.8401 107.208 42.8009 98.4089 42.8009C89.6732 42.8009 88.4372 42.7595 88.1346 42.4571C87.7072 42.0295 87.7024 42.1146 88.327 39.0882C88.725 37.1594 88.9563 36.4887 89.3268 36.1887C89.764 35.8346 90.3855 35.7983 96.0088 35.7983C102.011 35.7983 102.219 35.7841 102.523 35.3497C102.696 35.1031 103.265 32.7368 103.789 30.0914C104.511 26.4382 104.683 25.1913 104.503 24.9051C104.29 24.5672 103.614 24.5171 97.9428 24.419L91.6204 24.3096L91.5576 23.7625C91.523 23.4617 91.9911 20.8028 92.5977 17.8541C93.387 14.0173 93.8056 12.415 94.07 12.2192C94.3518 12.0104 96.6292 11.9456 103.674 11.9456C112.152 11.9456 112.945 11.9144 113.356 11.5627Z" fill="currentColor"/>
<path d="M145.24 15.2426C143.679 4.87367 143.059 1.26076 142.791 0.963803C142.454 0.592008 141.849 0.566406 133.417 0.566406C125.107 0.566406 124.377 0.596386 124.065 0.949361C123.846 1.19686 122.166 9.11615 119.317 23.3249C116.892 35.4208 114.548 47.0933 114.109 49.2636C113.67 51.434 113.376 53.379 113.455 53.5856C113.588 53.932 114.282 53.9613 122.354 53.9613H131.109L131.425 53.4689C131.598 53.198 132.338 49.9823 133.069 46.3228C134.325 40.0311 134.498 39.3164 134.708 39.5366C134.756 39.5867 135.354 42.7289 136.038 46.5193C136.722 50.3097 137.384 53.5346 137.51 53.686C137.683 53.895 139.197 53.9613 143.8 53.9613C149.809 53.9613 149.867 53.9569 150.307 53.4689C150.552 53.198 152.356 49.9484 154.316 46.2475C156.277 42.5464 157.95 39.5184 158.036 39.5184C158.122 39.5184 157.57 42.6223 156.809 46.4158C156.049 50.2092 155.483 53.4589 155.551 53.6372C155.658 53.916 156.907 53.9613 164.488 53.9613C171.551 53.9613 173.348 53.9035 173.542 53.6705C173.675 53.5105 176.148 41.6288 179.037 27.2667C182.998 7.58236 184.232 1.08153 184.048 0.860077C183.708 0.450862 164.019 0.43817 163.489 0.846947C163.05 1.18657 162.593 2.03389 151.966 22.2307C150.225 25.5406 148.548 28.6396 148.24 29.1178C147.737 29.8992 147.662 29.9434 147.505 29.5554C147.409 29.318 146.39 22.8774 145.24 15.2426Z" fill="currentColor"/>
<path d="M213.713 15.2281C212.197 5.17762 211.521 1.2264 211.271 0.949361C210.952 0.596386 210.218 0.566406 201.911 0.566406C193.603 0.566406 192.871 0.596386 192.557 0.949361C192.13 1.42882 181.726 53.0199 181.944 53.5783C182.083 53.9342 182.713 53.9613 190.849 53.9613H199.604L199.915 53.4689C200.086 53.198 200.824 49.9845 201.554 46.3274C202.801 40.0872 202.989 39.3072 203.198 39.5366C203.243 39.5867 203.834 42.7188 204.509 46.497C205.185 50.2749 205.849 53.4998 205.985 53.6637C206.183 53.9013 207.44 53.9613 212.233 53.9613C218.167 53.9613 218.24 53.9558 218.718 53.4689C218.984 53.198 220.826 49.9238 222.811 46.1928C224.983 42.1118 226.445 39.5834 226.482 39.8467C226.516 40.0874 225.95 43.2073 225.225 46.7799C224.5 50.3523 223.966 53.4298 224.038 53.6184C224.155 53.9219 225.182 53.9613 232.982 53.9613C239.766 53.9613 241.847 53.8983 242.02 53.6878C242.145 53.5374 244.612 41.6483 247.503 27.268C251.289 8.43712 252.695 1.0439 252.529 0.844103C252.221 0.472527 232.96 0.437953 232.149 0.807559C231.756 0.986564 230.56 3.05496 227.501 8.84962C225.236 13.14 223.221 16.9459 223.023 17.307C222.825 17.6681 221.448 20.2777 219.964 23.1061C218.479 25.9344 217.02 28.6405 216.72 29.1195C216.228 29.9062 216.158 29.9487 215.993 29.5572C215.892 29.3189 214.867 22.8708 213.713 15.2281Z" fill="currentColor"/>
<path d="M273.892 27.089C278.032 6.45341 279.032 1.13712 278.822 0.883931C278.6 0.6163 277.209 0.566406 269.975 0.566406C261.956 0.566406 261.368 0.592445 261.032 0.96424C260.784 1.23778 259.478 7.30751 256.853 20.3855C254.752 30.8485 252.397 42.5602 251.618 46.4116C250.618 51.3607 250.269 53.4945 250.429 53.6878C250.603 53.8983 252.666 53.9613 259.376 53.9613H268.098L268.398 53.4689C268.564 53.198 271.036 41.3271 273.892 27.089Z" fill="currentColor"/>
<path d="M308.675 11.3986C306.202 4.87301 304.7 1.19752 304.404 0.949361C303.986 0.598793 303.218 0.566406 295.333 0.566406H286.719L286.401 1.05878C286.013 1.65816 276.528 53.1297 276.715 53.6168C276.833 53.9221 277.828 53.9613 285.464 53.9613C293.397 53.9613 294.108 53.9309 294.416 53.5783C294.631 53.3321 295.393 49.6759 296.547 43.348C297.534 37.9319 298.424 33.4161 298.523 33.313C298.622 33.2097 298.8 33.3082 298.918 33.5318C299.035 33.7553 300.78 38.2711 302.793 43.5668C304.807 48.8625 306.606 53.3678 306.791 53.5783C307.103 53.9331 307.904 53.9613 317.665 53.9613C325.763 53.9613 328.284 53.898 328.553 53.6878C328.814 53.4838 330.109 46.8429 333.639 27.6142C336.244 13.4243 338.346 1.55815 338.31 1.245L338.243 0.675822L329.552 0.618706L320.86 0.561374L320.553 1.05637C320.385 1.32838 319.185 7.41036 317.887 14.5716C316.589 21.7329 315.446 27.684 315.346 27.7963C315.246 27.9087 315.103 27.9394 315.028 27.8645C314.871 27.7079 313.936 25.2847 308.675 11.3986Z" fill="currentColor"/>
<path d="M392.787 11.5618C393.234 11.1141 395.198 1.53693 394.966 0.934482C394.835 0.592886 393.237 0.567718 372.661 0.583693C353.015 0.599011 350.386 0.640372 349.514 0.948049C348.205 1.41022 346.196 3.42609 345.841 4.6358C345.696 5.12882 343.907 13.8438 341.867 24.0024C339.826 34.161 337.661 44.9266 337.055 47.9259C336.234 51.9896 336.015 53.4532 336.195 53.6702C336.394 53.9092 340.715 53.9613 360.338 53.9613C382.827 53.9613 384.26 53.9388 384.578 53.5783C384.792 53.3363 385.65 49.4496 386.908 43.0197C389.183 31.4009 388.916 32.0781 391.22 32.0781C392.425 32.0781 392.655 32.0118 392.928 31.5858C393.235 31.1061 395.032 22.603 395.031 21.6366C395.031 21.3701 394.84 21.0501 394.607 20.9254C394.328 20.7762 389.515 20.6989 380.505 20.6989H366.825L366.289 21.1913C365.825 21.618 365.628 22.3261 364.815 26.5098C364.299 29.164 363.94 31.5028 364.019 31.707C364.143 32.0293 364.531 32.0781 366.971 32.0781C368.967 32.0781 369.897 32.1626 370.18 32.3698C370.563 32.6497 370.546 32.8303 369.774 36.8012C368.777 41.9332 368.651 42.3361 367.969 42.5956C367.221 42.8799 357.694 42.8613 357.158 42.5744C356.925 42.4497 356.734 42.1297 356.734 41.8632C356.732 40.7456 362.516 12.6886 362.822 12.3286C363.127 11.971 364.115 11.9456 377.776 11.9456C391.43 11.9456 392.43 11.92 392.787 11.5618Z" fill="currentColor"/>
<path d="M438.913 6.00152C439.645 2.36258 439.827 1.08154 439.644 0.860735C439.443 0.618707 436.375 0.566842 422.412 0.568593L405.425 0.570784L404.331 1.08241C403.053 1.68004 401.537 3.23724 401.194 4.30492C401.061 4.71611 400.055 9.97616 398.958 15.994C396.717 28.279 396.67 28.8677 397.803 30.2695C399.202 32.0015 398.934 31.9554 408.355 32.0781C415.954 32.1771 416.779 32.223 416.991 32.5598C417.301 33.0508 415.738 41.8785 415.255 42.3632C414.978 42.6418 413.418 42.7092 404.925 42.8085C399.423 42.8729 394.907 42.9466 394.89 42.9727C394.704 43.2526 394.415 44.5012 393.592 48.5791C392.867 52.1782 392.687 53.4462 392.87 53.667C393.071 53.909 396.163 53.9613 410.239 53.9613C429.057 53.9613 428.081 54.0276 429.85 52.6277C431.446 51.3646 431.617 50.7464 433.989 37.6778C435.189 31.0689 436.17 25.4559 436.169 25.2044C436.164 23.2704 434.592 21.3506 432.678 20.9401C431.981 20.7906 428.657 20.6989 423.932 20.6989C417.712 20.6989 416.264 20.6433 416.059 20.3963C415.726 19.9947 417.004 12.8903 417.511 12.3286C417.83 11.9752 418.585 11.9456 427.324 11.9456C432.531 11.9456 436.95 11.8848 437.143 11.8104C437.733 11.5844 437.902 11.0294 438.913 6.00152Z" fill="currentColor"/>
</svg>
