<svg width="442" height="139" viewBox="0 0 442 139" fill="none" xmlns="http://www.w3.org/2000/svg">
<g clip-path="url(#clip0_216_11)">
<path d="M197.452 39.6996L184.732 41.5843L180.435 56.6617L197.795 54.0917C203.468 53.235 208.28 49.8083 207.593 44.497C207.077 40.2136 204.155 38.843 197.452 39.6996Z" fill="#D9D9D9"/>
<path d="M305.74 49.2943C309.521 49.2943 313.131 50.151 316.568 51.5217C328.772 44.6683 341.148 37.4723 353.868 29.591C345.789 30.4476 241.454 32.8463 234.407 33.5316C235.954 26.5069 237.501 19.9963 239.048 12.6289L170.809 24.4509C172.013 17.9403 173.044 11.9436 174.247 5.26156L113.915 18.9683C115.806 12.2862 117.697 6.63223 119.759 0.292877C117.869 0.464211 117.181 0.464211 116.665 0.464211C91.5701 4.06222 66.6466 7.4889 41.5513 11.0869C39.6606 11.2582 38.1136 12.6289 37.7698 14.5136C25.3941 55.1197 14.2215 91.4424 1.84572 132.049C1.15818 134.276 0.642519 136.332 0.126862 138.388C27.9723 126.737 54.6146 117.828 82.1163 106.348C80.3975 114.23 79.0224 121.255 77.6473 128.108L78.8505 128.793L150.699 99.8378C149.839 104.292 148.98 107.548 148.292 110.974C148.12 112.516 148.12 114.058 148.12 115.601C149.667 115.429 151.214 114.915 152.589 114.572C168.231 108.062 183.701 101.208 199.342 94.6978C204.499 92.4704 209.484 90.4144 215.156 88.0158C214.125 95.5544 212.921 103.093 211.89 110.632C238.704 94.1838 263.8 80.6484 289.067 66.7704L284.082 63.6864C289.067 54.6057 295.255 49.2943 305.74 49.2943ZM76.7879 85.6171L72.3189 94.8691L27.1129 109.432L25.7378 107.034L25.9097 106.862L78.3349 29.9336L46.0203 36.273L48.9424 27.8776H49.1143L94.664 18.9683L96.7266 19.8249L96.5547 20.1676L42.2389 95.5544L76.7879 85.6171ZM156.715 30.7903L120.103 39.871L115.29 58.889L150.355 48.7803L149.152 56.833L112.368 68.141L106.696 89.3864L142.964 78.4211L142.792 79.1064L140.386 87.1591H140.214L92.9452 104.121L93.117 103.436L112.54 34.217H112.712L159.293 21.8809L156.715 30.7903ZM202.264 59.7457C208.452 64.8857 208.624 65.057 212.234 71.9104L202.264 76.1937C199.858 70.3684 198.139 66.599 192.123 61.973L178.716 64.2004L171.153 88.1871L161.871 92.6418L176.825 36.787L196.936 33.8743C206.39 32.5036 214.468 34.5596 215.5 42.0983C216.875 50.3223 211.203 58.0323 202.952 59.5744C202.78 59.7457 202.608 59.7457 202.264 59.7457ZM257.955 74.6517C255.205 76.3651 252.455 77.3931 249.361 77.9071C247.299 78.2497 245.408 78.2497 243.517 77.9071C238.704 77.0504 234.751 74.1377 232.344 70.0257C227.36 61.8017 230.797 52.3783 240.595 46.3817C244.892 43.6403 249.877 42.6123 254.861 43.469C259.846 44.3257 263.8 47.2383 266.378 51.3503C271.191 59.5744 267.925 68.655 257.955 74.6517Z" fill="#D9D9D9"/>
<path d="M254.69 68.3124C257.44 66.7704 259.502 64.543 260.706 61.8017C261.737 59.403 261.565 56.6617 260.362 54.6057C258.815 52.0357 256.237 50.3223 253.315 50.151C252.111 49.9797 251.08 49.9797 249.877 50.151C247.814 50.4937 245.752 51.179 244.033 52.207C238.876 55.291 234.923 60.945 238.36 66.7704C240.939 71.3964 248.502 72.0817 254.69 68.3124Z" fill="#D9D9D9"/>
<path d="M331.179 121.769H283.223V111.831C284.082 95.8971 295.598 86.9878 303.849 80.6484C309.177 76.5364 313.475 73.2811 313.475 69.6831C313.475 65.3997 309.349 63.515 305.912 63.515C300.755 63.515 297.661 68.9977 296.802 70.8824L295.77 72.7671L281.504 64.543L282.363 62.8297C287.692 52.3783 295.255 47.4097 305.74 47.4097C320.35 47.4097 330.147 56.319 330.147 69.6831C330.147 80.9911 322.413 86.8164 314.678 92.6418C309.349 96.7538 304.365 100.352 301.958 106.006H331.007L331.179 121.769ZM287.176 117.828H327.053V109.946H296.63L297.317 107.376C299.38 99.1525 305.912 94.0124 312.443 89.3864C319.491 84.0751 326.194 78.9351 326.194 69.6831C326.194 58.5464 318.287 51.3503 305.912 51.3503C297.661 51.3503 291.645 54.9484 287.176 62.8297L294.223 67.113C296.286 63.8577 300.067 59.403 306.083 59.403C311.928 59.403 317.772 63.001 317.772 69.6831C317.772 75.1657 312.443 79.2777 306.427 83.9038C298.349 90.0718 288.207 98.1245 287.348 112.002L287.176 117.828Z" fill="#D9D9D9"/>
<path d="M358.509 122.454C342.179 122.454 333.585 108.576 333.585 94.5264C333.241 76.5364 341.492 59.403 355.93 48.4377L356.446 48.095H377.76L373.291 51.693C364.868 58.375 357.993 65.057 354.211 73.1097C356.102 72.4244 357.993 72.2531 359.884 72.2531C373.806 72.2531 383.432 82.5331 383.432 97.2678C383.432 112.516 373.635 122.454 358.509 122.454ZM357.821 52.207C344.758 62.487 337.367 78.2497 337.71 94.6978C337.71 106.177 344.242 118.684 358.68 118.684C371.4 118.684 379.307 110.632 379.307 97.4391C379.307 85.1031 371.4 76.5364 359.884 76.5364C356.618 76.3651 353.696 77.5644 351.461 79.7917L345.617 85.7884L348.195 77.7357C351.461 67.4557 357.821 59.917 366.587 52.207H357.821ZM358.509 110.118C351.633 110.118 345.961 104.464 346.133 97.4391C346.133 97.2678 346.133 97.2678 346.133 97.0964C346.133 89.5578 351.461 83.7324 358.337 83.7324C365.728 83.7324 371.056 89.2151 371.056 96.9251C371.228 103.778 365.728 109.775 358.852 109.946C358.68 110.118 358.509 110.118 358.509 110.118ZM358.337 87.8444C353.008 87.8444 350.258 92.8131 350.258 97.0964C350.086 101.894 353.868 105.663 358.509 105.834H358.68C363.493 105.663 367.275 101.722 367.103 96.9251V96.7538C366.931 91.4424 363.493 87.8444 358.337 87.8444Z" fill="#D9D9D9"/>
<path d="M414.371 122.454C394.089 122.454 386.87 102.236 386.87 84.9318C386.87 67.627 394.089 47.2383 414.371 47.2383C434.654 47.2383 441.529 67.4557 441.529 84.5891C441.529 101.722 434.482 122.454 414.371 122.454ZM414.371 51.3503C392.026 51.3503 390.823 79.2777 390.823 85.1031C390.823 100.694 396.839 118.684 414.371 118.684C436.373 118.684 437.576 90.5858 437.576 84.9318C437.576 79.2777 436.545 51.3503 414.371 51.3503ZM414.371 110.46C404.918 110.46 399.417 101.208 399.417 84.7604C399.417 68.3124 404.746 59.0604 414.371 59.0604C423.653 59.0604 428.982 68.3124 428.982 84.7604C428.982 101.208 423.825 110.46 414.371 110.46ZM414.371 63.3437C404.918 63.3437 403.543 76.8791 403.543 84.9318C403.543 91.2711 404.574 106.52 414.371 106.52C423.481 106.52 424.857 92.9844 424.857 84.9318C425.028 78.5924 423.997 63.3437 414.371 63.3437Z" fill="#D9D9D9"/>
</g>
<defs>
<clipPath id="clip0_216_11">
<rect width="442" height="139" fill="white"/>
</clipPath>
</defs>
</svg>
