<svg width="450" height="142" viewBox="0 0 450 142" fill="none" xmlns="http://www.w3.org/2000/svg">
<path fill-rule="evenodd" clip-rule="evenodd" d="M77.4964 5.75273C53.3316 9.26017 40.3692 11.5589 39.5008 12.4918C38.2803 13.8019 0 138.257 0 140.915C0 141.702 1.65065 141.399 4.86388 140.02C7.53952 138.873 23.7818 132.536 40.959 125.938C58.1361 119.34 74.4439 112.984 77.1995 111.811C79.954 110.639 82.3746 109.845 82.5794 110.048C82.7842 110.251 81.9886 115.091 80.812 120.804C79.6355 126.516 78.932 131.449 79.2495 131.763C79.5679 132.077 95.9792 125.818 115.719 117.853C135.461 109.888 151.887 103.644 152.223 103.977C152.56 104.311 152.315 106.628 151.679 109.127C151.044 111.626 150.524 114.846 150.524 116.283C150.524 118.57 150.847 118.815 153.109 118.253C154.53 117.899 169.851 111.551 187.156 104.144C204.46 96.7362 218.678 90.7424 218.751 90.8236C218.822 90.9047 218.194 95.6715 217.351 101.416C216.509 107.16 216.067 112.104 216.369 112.404C216.67 112.703 224.276 108.6 233.271 103.287C254.048 91.0132 291.493 70.1845 292.782 70.1845C293.322 70.1845 295.482 71.1884 297.582 72.4153C301.222 74.5427 301.453 74.561 302.504 72.8128C306.563 66.0687 310.429 64.0965 315.507 66.1792C318.658 67.4711 319.969 70.1034 318.987 73.1647C318.641 74.2466 314.208 78.5491 309.136 82.7267C293.197 95.8561 289.619 101.678 288.961 115.561L288.516 124.941H313.214H337.911V116.322V107.703H323.576C313.696 107.703 309.24 107.351 309.24 106.569C309.24 105.106 315.092 99.5531 324.22 92.3567C338.671 80.9624 341.152 66.0291 330.368 55.3497L326.132 51.1537L341.271 42.2994C349.598 37.4292 357.433 32.6046 358.681 31.5774C360.924 29.7319 360.873 29.7157 354.295 30.1983C344.296 30.9314 240.436 33.8224 239.99 33.3803C239.777 33.1694 240.604 28.5891 241.829 23.2027C243.053 17.8153 243.861 13.2188 243.624 12.9876C243.387 12.7565 227.988 15.2235 209.403 18.4704C190.818 21.7172 175.422 24.1883 175.19 23.9622C174.958 23.7351 175.49 19.5553 176.371 14.6729C177.253 9.79049 177.801 5.61787 177.59 5.40189C177.379 5.18489 163.791 8.0748 147.395 11.8226C131 15.5713 117.403 18.4572 117.18 18.2361C116.956 18.0151 117.91 14.2136 119.298 9.78745C120.687 5.36031 121.829 1.39759 121.838 0.978803C121.865 -0.411396 114.482 0.383583 77.4964 5.75273ZM97.2274 20.7519C97.1997 21.4495 85.0247 38.9025 70.1719 59.5375C55.3192 80.1725 43.525 97.1854 43.9633 97.3446C44.4016 97.5038 51.8346 95.5843 60.481 93.0787C69.1275 90.5731 76.3864 88.7053 76.6127 88.9284C76.838 89.1525 76.1652 91.0629 75.1187 93.175L73.2142 97.0151L50.4215 104.275C37.3269 108.447 27.3719 111.124 27.0237 110.566C26.6909 110.033 38.4707 91.8305 53.2006 70.1176C68.3124 47.842 79.3498 30.6384 78.5317 30.6384C77.2496 30.6384 55.4062 34.8252 49.458 36.2114C47.3301 36.7062 47.2666 36.5521 48.3172 33.434C48.9296 31.6169 49.7385 29.7866 50.1153 29.3658C50.6908 28.7209 92.127 19.889 95.9976 19.5848C96.7021 19.53 97.255 20.0552 97.2274 20.7519ZM160.64 27.1675L159.598 31.2357L140.982 35.7936L122.365 40.3515L119.912 49.7128C118.563 54.8609 117.725 59.3367 118.05 59.6582C118.373 59.9796 126.053 58.0783 135.115 55.4328C144.178 52.7883 151.856 50.886 152.18 51.2054C152.503 51.5259 152.461 53.1675 152.087 54.8548C151.436 57.7924 150.831 58.0986 137.91 62.0644C130.486 64.3418 122.117 66.9894 119.312 67.9466L114.211 69.6877L111.352 80.2211C109.78 86.0152 108.694 90.9534 108.939 91.1957C109.183 91.438 117.501 89.1464 127.423 86.1044C144.276 80.936 145.419 80.7139 144.785 82.7298C142.842 88.9122 143.158 88.7307 119.286 97.3537C106.48 101.98 95.8665 105.629 95.7006 105.465C95.5337 105.3 99.7914 89.4242 105.161 70.1835L114.924 35.2014L138.1 29.0241C150.847 25.6272 161.368 22.9036 161.48 22.9725C161.591 23.0425 161.214 24.9296 160.64 27.1675ZM216.681 38.0721C221.88 44.0567 218.903 55.2939 211.202 58.7598C209.086 59.7119 207.156 60.6255 206.912 60.7898C206.67 60.9541 207.853 62.5653 209.544 64.3692C211.235 66.1731 213.409 68.914 214.375 70.4583L216.132 73.2671L211.343 75.3002C208.708 76.4186 206.444 77.2075 206.311 77.0544C206.179 76.9013 205.135 74.9504 203.991 72.7195C202.846 70.4887 200.534 67.3697 198.853 65.7878L195.795 62.9121L188.819 64.2668L181.843 65.6215L177.982 77.8443C174.295 89.5206 173.955 90.1462 170.388 91.8305C168.334 92.7999 166.474 93.4154 166.253 93.1963C165.905 92.8516 180.053 38.6561 180.664 37.994C181.559 37.0246 200.576 34.8658 206.697 35.0392C213.537 35.2318 214.458 35.5117 216.681 38.0721ZM194.591 41.1556L187.971 42.2994L185.766 50.158C183.206 59.284 182.32 58.7202 195.799 56.532C205.697 54.9258 208.04 53.9858 210.374 50.6853C212.543 47.6189 212.368 44.222 209.915 41.7924C207.619 39.519 204.754 39.4004 194.591 41.1556ZM266.445 47.4029C275.39 53.9574 275.512 65.4684 266.717 73.116C254.593 83.6566 239.447 80.7241 235.493 67.0695C233.439 59.9776 238.455 51.2298 247.055 46.902C252.588 44.1186 262.305 44.369 266.445 47.4029ZM414.463 49.3194C408.85 51.3028 405.822 53.5285 402.435 58.1595C389.917 75.2718 392.402 109.398 406.967 120.399C418.329 128.981 434.655 126.581 442.627 115.158C448.16 107.229 449.963 100.322 449.999 86.9156C450.025 76.8232 449.632 73.6038 447.694 68.044C442.273 52.4952 428.089 44.5039 414.463 49.3194ZM356.07 55.8871C345.51 66.9722 339.959 80.4909 339.959 95.124C339.959 108.215 345.204 118.223 354.661 123.176C360.456 126.212 371.487 126.219 377.334 123.192C388.67 117.321 393.969 103.537 389.969 90.3206C387.237 81.2889 377.395 73.9363 367.864 73.8066C364.908 73.766 362.489 73.4375 362.488 73.0744C362.485 71.3973 370.895 61.6152 376.371 56.9264C379.717 54.0619 383.129 51.0817 383.953 50.304C385.241 49.0912 383.842 48.8905 374.094 48.8905H362.735L356.07 55.8871ZM250.31 52.3452C245.603 54.3752 241.658 59.5608 241.658 63.7172C241.658 71.9124 252.135 75.1775 260.458 69.5771C273.055 61.1011 264.337 46.2946 250.31 52.3452ZM323.247 55.3132C328.313 57.907 331.089 62.5846 331.583 69.3601C332.272 78.7975 330.94 80.6937 312.954 95.8703C307.561 100.422 304.383 104.928 302.647 110.491L301.934 112.773H317.363H332.792V116.322V119.871H312.824H292.857V117.549C292.857 113.086 295.928 103.605 298.732 99.4061C300.288 97.0779 305.65 91.8213 310.648 87.7237C315.647 83.6272 320.706 79.055 321.889 77.5655C324.877 73.8035 324.751 68.0054 321.61 64.6937C316.189 58.9798 308.356 59.1481 302.596 65.1034C299.763 68.0308 299.654 68.0541 296.795 66.382C293.333 64.3571 293.251 63.7679 295.918 60.0587C299.418 55.1915 305.647 52.7528 313.344 53.2365C317.009 53.4667 321.465 54.4006 323.247 55.3132ZM432.156 55.228C437.536 57.9141 442.639 65.5171 444.343 73.3827C445.88 80.4807 445.667 95.0621 443.933 101.518C440.324 114.945 432.766 121.315 421.229 120.656C412.342 120.148 407.691 116.903 403.36 108.19C400.414 102.265 399.978 100.281 399.556 90.8885C398.979 78.0431 400.495 70.0517 404.873 62.8624C410.652 53.3744 422.055 50.1833 432.156 55.228ZM366.131 60.5251C363.039 64.135 359.514 69.0184 358.299 71.377C356.359 75.143 352.247 85.8955 352.247 87.2036C352.247 87.4662 354.255 85.8478 356.71 83.6079C359.163 81.368 362.58 79.2284 364.303 78.8543C368.06 78.037 375.25 79.7993 379.029 82.4641C387.34 88.3251 388.537 106.906 381.135 115.161C378.365 118.25 371.628 120.838 366.294 120.862C352.713 120.924 345.109 112.009 345.09 96.0011C345.072 81.875 349.919 69.1401 359.203 58.9139C363.138 54.58 364.204 53.9605 367.728 53.9605H371.755L366.131 60.5251ZM416.03 62.037C409.363 66.0626 405.695 79.484 407.461 93.4042C408.759 103.641 411.681 109.08 417.338 111.792C421.498 113.786 422.264 113.857 426.203 112.613C434.781 109.904 439.061 97.0313 437.155 79.6665C435.822 67.5177 430.202 60.0516 422.389 60.0516C420.7 60.0516 417.839 60.9449 416.03 62.037ZM426.877 66.7684C431.99 70.3143 434.274 82.8728 432.113 95.56C431.118 101.403 430.211 103.662 427.973 105.878C422.8 111.001 417.192 108.982 414.027 100.86C411.773 95.0743 411.488 78.8664 413.537 72.9893C415.929 66.1285 421.924 63.3329 426.877 66.7684ZM359.127 87.1965C354.975 89.7436 351.852 96.6815 352.743 101.379C353.732 106.606 354.947 108.522 358.712 110.795C367.444 116.067 378.87 109.428 378.87 99.0836C378.87 88.97 367.446 82.091 359.127 87.1965ZM371.628 93.1365C374.761 97.08 374.491 102.923 371.052 105.601C367.343 108.491 362.992 108.294 359.756 105.091C357.505 102.862 357.202 101.86 357.691 98.2562C358.725 90.6197 367.166 87.5189 371.628 93.1365Z" fill="currentColor"/>
</svg>
