<svg width="24" height="24" viewBox="0 0 24 24" fill="none" xmlns="http://www.w3.org/2000/svg">
<path d="M24 3.75C24 1.67893 22.3211 0 20.25 0H3.75C1.67893 0 0 1.67893 0 3.75V20.25C0 22.3211 1.67893 24 3.75 24H20.25C22.3211 24 24 22.3211 24 20.25V3.75Z" fill="white"/>
<path fill-rule="evenodd" clip-rule="evenodd" d="M17.8723 12.1365C17.8723 11.711 17.8341 11.3019 17.7632 10.9092H12.1123V13.2301H15.3414C15.2023 13.9801 14.7796 14.6156 14.1441 15.041V16.5465H16.0832C17.2178 15.5019 17.8723 13.9637 17.8723 12.1365Z" fill="#4285F4"/>
<path fill-rule="evenodd" clip-rule="evenodd" d="M12.1123 17.9999C13.7323 17.9999 15.0905 17.4626 16.0832 16.5463L14.1441 15.0408C13.6069 15.4008 12.9196 15.6135 12.1123 15.6135C10.5496 15.6135 9.22686 14.5581 8.75504 13.1399H6.75049V14.6944C7.73776 16.6554 9.76686 17.9999 12.1123 17.9999Z" fill="#34A853"/>
<path fill-rule="evenodd" clip-rule="evenodd" d="M8.75504 13.14C8.63504 12.78 8.56686 12.3954 8.56686 12C8.56686 11.6045 8.63504 11.22 8.75504 10.86V9.30542H6.75049C6.34412 10.1154 6.1123 11.0318 6.1123 12C6.1123 12.9682 6.34412 13.8845 6.75049 14.6945L8.75504 13.14Z" fill="#FBBC05"/>
<path fill-rule="evenodd" clip-rule="evenodd" d="M12.1123 8.38637C12.9932 8.38637 13.7841 8.6891 14.406 9.28364L16.1269 7.56273C15.0878 6.59455 13.7296 6 12.1123 6C9.76686 6 7.73776 7.34455 6.75049 9.30546L8.75504 10.86C9.22686 9.44183 10.5496 8.38637 12.1123 8.38637Z" fill="#EA4335"/>
</svg>
