<svg width="24" height="24" viewBox="0 0 24 24" fill="none" xmlns="http://www.w3.org/2000/svg">
<path d="M20.25 0H3.75C1.67893 0 0 1.67893 0 3.75V20.25C0 22.3211 1.67893 24 3.75 24H20.25C22.3211 24 24 22.3211 24 20.25V3.75C24 1.67893 22.3211 0 20.25 0Z" fill="#F00073"/>
<path d="M11.9999 6.8999C13.6499 6.8999 13.8749 6.8999 14.5499 6.8999C15.1499 6.8999 15.4499 7.0499 15.6749 7.1249C15.9749 7.2749 16.1999 7.3499 16.4249 7.5749C16.6499 7.7999 16.7999 8.0249 16.8749 8.3249C16.9499 8.5499 17.0249 8.8499 17.0999 9.4499C17.0999 10.1249 17.0999 10.2749 17.0999 11.9999C17.0999 13.7249 17.0999 13.8749 17.0999 14.5499C17.0999 15.1499 16.9499 15.4499 16.8749 15.6749C16.7249 15.9749 16.6499 16.1999 16.4249 16.4249C16.1999 16.6499 15.9749 16.7999 15.6749 16.8749C15.4499 16.9499 15.1499 17.0249 14.5499 17.0999C13.8749 17.0999 13.7249 17.0999 11.9999 17.0999C10.2749 17.0999 10.1249 17.0999 9.4499 17.0999C8.8499 17.0999 8.5499 16.9499 8.3249 16.8749C8.0249 16.7249 7.7999 16.6499 7.5749 16.4249C7.3499 16.1999 7.1999 15.9749 7.1249 15.6749C7.0499 15.4499 6.9749 15.1499 6.8999 14.5499C6.8999 13.8749 6.8999 13.7249 6.8999 11.9999C6.8999 10.2749 6.8999 10.1249 6.8999 9.4499C6.8999 8.8499 7.0499 8.5499 7.1249 8.3249C7.2749 8.0249 7.3499 7.7999 7.5749 7.5749C7.7999 7.3499 8.0249 7.1999 8.3249 7.1249C8.5499 7.0499 8.8499 6.9749 9.4499 6.8999C10.1249 6.8999 10.3499 6.8999 11.9999 6.8999ZM11.9999 5.7749C10.2749 5.7749 10.1249 5.7749 9.4499 5.7749C8.7749 5.7749 8.3249 5.9249 7.9499 6.0749C7.5749 6.2249 7.1999 6.4499 6.8249 6.8249C6.4499 7.1999 6.2999 7.4999 6.0749 7.9499C5.9249 8.3249 5.8499 8.7749 5.7749 9.4499C5.7749 10.1249 5.7749 10.3499 5.7749 11.9999C5.7749 13.7249 5.7749 13.8749 5.7749 14.5499C5.7749 15.2249 5.9249 15.6749 6.0749 16.0499C6.2249 16.4249 6.4499 16.7999 6.8249 17.1749C7.1999 17.5499 7.4999 17.6999 7.9499 17.9249C8.3249 18.0749 8.7749 18.1499 9.4499 18.2249C10.1249 18.2249 10.3499 18.2249 11.9999 18.2249C13.6499 18.2249 13.8749 18.2249 14.5499 18.2249C15.2249 18.2249 15.6749 18.0749 16.0499 17.9249C16.4249 17.7749 16.7999 17.5499 17.1749 17.1749C17.5499 16.7999 17.6999 16.4999 17.9249 16.0499C18.0749 15.6749 18.1499 15.2249 18.2249 14.5499C18.2249 13.8749 18.2249 13.6499 18.2249 11.9999C18.2249 10.3499 18.2249 10.1249 18.2249 9.4499C18.2249 8.7749 18.0749 8.3249 17.9249 7.9499C17.7749 7.5749 17.5499 7.1999 17.1749 6.8249C16.7999 6.4499 16.4999 6.2999 16.0499 6.0749C15.6749 5.9249 15.2249 5.8499 14.5499 5.7749C13.8749 5.7749 13.7249 5.7749 11.9999 5.7749Z" fill="white"/>
<path d="M11.9999 8.7749C10.1999 8.7749 8.7749 10.1999 8.7749 11.9999C8.7749 13.7999 10.1999 15.2249 11.9999 15.2249C13.7999 15.2249 15.2249 13.7999 15.2249 11.9999C15.2249 10.1999 13.7999 8.7749 11.9999 8.7749ZM11.9999 14.0999C10.8749 14.0999 9.8999 13.1999 9.8999 11.9999C9.8999 10.8749 10.7999 9.8999 11.9999 9.8999C13.1249 9.8999 14.0999 10.7999 14.0999 11.9999C14.0999 13.1249 13.1249 14.0999 11.9999 14.0999Z" fill="white"/>
<path d="M15.2999 9.4499C15.7141 9.4499 16.0499 9.11412 16.0499 8.6999C16.0499 8.28569 15.7141 7.9499 15.2999 7.9499C14.8857 7.9499 14.5499 8.28569 14.5499 8.6999C14.5499 9.11412 14.8857 9.4499 15.2999 9.4499Z" fill="white"/>
</svg>
